<svg id="svg" version="1.1" xmlns="http://www.w3.org/2000/svg" xmlns:xlink="http://www.w3.org/1999/xlink" width="400" height="400" viewBox="0, 0, 400,400"><g id="svgg"><path id="path0" d="M291.012 198.041 C 290.192 198.867,283.163 198.923,272.700 198.187 C 270.321 198.020,269.200 198.079,269.200 198.371 C 269.200 198.619,268.358 198.800,267.200 198.800 C 266.100 198.800,265.200 198.980,265.200 199.200 C 265.200 199.420,264.401 199.600,263.424 199.600 C 262.447 199.600,261.536 199.780,261.400 200.000 C 261.264 200.220,260.533 200.400,259.776 200.400 C 259.019 200.400,258.400 200.580,258.400 200.800 C 258.400 201.020,257.860 201.200,257.200 201.200 C 256.540 201.200,256.000 201.380,256.000 201.600 C 256.000 201.820,255.460 202.000,254.800 202.000 C 254.140 202.000,253.600 202.180,253.600 202.400 C 253.600 202.620,253.060 202.800,252.400 202.800 C 251.740 202.800,251.200 202.980,251.200 203.200 C 251.200 203.420,250.761 203.600,250.224 203.600 C 249.687 203.600,249.136 203.780,249.000 204.000 C 248.864 204.220,248.403 204.400,247.976 204.400 C 247.549 204.400,247.200 204.580,247.200 204.800 C 247.200 205.020,246.750 205.200,246.200 205.200 C 245.650 205.200,245.200 205.380,245.200 205.600 C 245.200 205.820,244.840 206.000,244.400 206.000 C 243.960 206.000,243.600 206.180,243.600 206.400 C 243.600 206.620,243.240 206.800,242.800 206.800 C 242.360 206.800,242.000 206.980,242.000 207.200 C 242.000 207.420,241.640 207.600,241.200 207.600 C 240.760 207.600,240.400 207.780,240.400 208.000 C 240.400 208.220,240.136 208.400,239.814 208.400 C 239.001 208.400,236.400 209.676,236.400 210.074 C 236.400 210.253,236.040 210.400,235.600 210.400 C 235.160 210.400,234.800 210.580,234.800 210.800 C 234.800 211.020,234.564 211.200,234.275 211.200 C 233.987 211.200,233.402 211.515,232.975 211.900 C 232.549 212.285,231.705 212.855,231.100 213.168 C 230.495 213.480,230.000 213.885,230.000 214.068 C 230.000 214.250,229.757 214.400,229.459 214.400 C 229.162 214.400,228.354 214.940,227.663 215.600 C 226.972 216.260,226.298 216.800,226.164 216.800 C 226.030 216.800,225.417 217.340,224.800 218.000 C 224.183 218.660,223.500 219.200,223.281 219.200 C 223.061 219.200,221.526 220.505,219.870 222.100 C 218.213 223.695,215.802 225.990,214.511 227.200 C 213.220 228.410,211.279 230.570,210.196 232.000 C 209.113 233.430,208.086 234.660,207.913 234.733 C 207.741 234.807,207.600 235.095,207.600 235.374 C 207.600 235.653,207.060 236.446,206.400 237.137 C 205.740 237.828,205.200 238.664,205.200 238.996 C 205.200 239.328,205.050 239.600,204.868 239.600 C 204.685 239.600,204.281 240.095,203.970 240.700 C 203.660 241.305,203.089 242.091,202.703 242.447 C 202.316 242.803,202.000 243.298,202.000 243.547 C 202.000 243.796,201.820 244.000,201.600 244.000 C 201.380 244.000,201.200 244.345,201.200 244.767 C 201.200 245.188,201.065 245.593,200.900 245.667 C 200.524 245.834,199.225 247.964,198.929 248.900 C 198.807 249.285,198.548 249.600,198.353 249.600 C 198.159 249.600,198.000 249.960,198.000 250.400 C 198.000 250.840,197.820 251.200,197.600 251.200 C 197.380 251.200,197.200 251.472,197.200 251.805 C 197.200 252.138,197.020 252.768,196.800 253.205 C 196.580 253.642,196.220 254.358,196.000 254.795 C 195.780 255.232,195.600 255.862,195.600 256.195 C 195.600 256.528,195.420 256.800,195.200 256.800 C 194.980 256.800,194.800 257.072,194.800 257.405 C 194.800 257.738,194.620 258.368,194.400 258.805 C 194.180 259.242,193.820 259.958,193.600 260.395 C 193.380 260.832,193.200 261.541,193.200 261.971 C 193.200 262.401,193.037 262.854,192.837 262.977 C 192.638 263.100,192.351 264.100,192.200 265.200 C 192.049 266.300,191.762 267.300,191.563 267.423 C 191.363 267.546,191.200 268.357,191.200 269.224 C 191.200 270.091,191.020 270.800,190.800 270.800 C 190.580 270.800,190.400 271.700,190.400 272.800 C 190.400 273.900,190.220 274.800,190.000 274.800 C 189.780 274.800,189.600 275.599,189.600 276.576 C 189.600 277.553,189.420 278.464,189.200 278.600 C 188.980 278.736,188.800 280.367,188.800 282.224 C 188.800 284.208,188.635 285.600,188.400 285.600 C 188.146 285.600,188.000 288.667,188.000 294.000 C 188.000 299.333,188.146 302.400,188.400 302.400 C 188.633 302.400,188.800 303.725,188.800 305.576 C 188.800 307.323,188.980 308.864,189.200 309.000 C 189.420 309.136,189.600 310.227,189.600 311.424 C 189.600 312.621,189.780 313.600,190.000 313.600 C 190.220 313.600,190.400 314.309,190.400 315.176 C 190.400 316.043,190.580 316.864,190.800 317.000 C 191.020 317.136,191.200 317.719,191.200 318.295 C 191.200 318.872,191.374 319.896,191.587 320.572 C 191.800 321.247,192.265 322.880,192.620 324.200 C 192.976 325.520,193.432 326.913,193.633 327.295 C 193.835 327.677,194.000 328.262,194.000 328.595 C 194.000 328.928,194.180 329.200,194.400 329.200 C 194.620 329.200,194.800 329.639,194.800 330.176 C 194.800 330.713,194.980 331.264,195.200 331.400 C 195.420 331.536,195.600 331.997,195.600 332.424 C 195.600 332.851,195.780 333.200,196.000 333.200 C 196.220 333.200,196.400 333.560,196.400 334.000 C 196.400 334.440,196.580 334.800,196.800 334.800 C 197.020 334.800,197.200 335.034,197.200 335.320 C 197.200 336.056,198.141 337.993,198.500 337.997 C 198.665 337.999,198.800 338.360,198.800 338.800 C 198.800 339.240,198.946 339.600,199.125 339.600 C 199.304 339.600,199.698 340.230,200.000 341.000 C 200.302 341.770,200.696 342.400,200.875 342.400 C 201.054 342.400,201.200 342.738,201.200 343.150 C 201.200 343.654,201.573 343.975,202.338 344.128 C 203.193 344.299,203.911 345.022,205.220 347.031 C 206.178 348.502,207.157 349.907,207.395 350.153 C 207.632 350.399,208.263 351.230,208.797 352.000 C 209.331 352.770,210.433 354.108,211.246 354.973 C 212.481 356.288,212.666 356.701,212.368 357.484 C 212.011 358.423,218.819 366.000,220.018 366.000 C 220.254 366.000,220.336 366.180,220.200 366.400 C 220.064 366.620,220.212 366.800,220.528 366.800 C 220.845 366.800,221.802 367.475,222.656 368.300 C 224.604 370.181,229.962 374.218,231.353 374.852 C 231.929 375.114,232.400 375.480,232.400 375.664 C 232.400 375.849,232.678 376.000,233.017 376.000 C 233.356 376.000,234.020 376.360,234.492 376.800 C 234.964 377.240,235.587 377.600,235.875 377.600 C 236.164 377.600,236.400 377.780,236.400 378.000 C 236.400 378.220,236.760 378.400,237.200 378.400 C 237.640 378.400,238.000 378.580,238.000 378.800 C 238.000 379.020,238.360 379.200,238.800 379.200 C 239.240 379.200,239.600 379.380,239.600 379.600 C 239.600 379.820,239.960 380.000,240.400 380.000 C 240.840 380.000,241.200 380.146,241.200 380.325 C 241.200 380.504,241.830 380.898,242.600 381.200 C 243.370 381.502,244.000 381.896,244.000 382.075 C 244.000 382.254,244.360 382.400,244.800 382.400 C 245.240 382.400,245.600 382.580,245.600 382.800 C 245.600 383.020,246.039 383.200,246.576 383.200 C 247.113 383.200,247.664 383.380,247.800 383.600 C 247.936 383.820,248.397 384.000,248.824 384.000 C 249.251 384.000,249.600 384.180,249.600 384.400 C 249.600 384.620,250.140 384.800,250.800 384.800 C 251.460 384.800,252.000 384.980,252.000 385.200 C 252.000 385.420,252.540 385.600,253.200 385.600 C 253.860 385.600,254.400 385.780,254.400 386.000 C 254.400 386.220,254.940 386.400,255.600 386.400 C 256.260 386.400,256.800 386.580,256.800 386.800 C 256.800 387.020,257.329 387.200,257.976 387.200 C 258.623 387.200,259.264 387.380,259.400 387.600 C 259.536 387.820,260.231 388.000,260.944 388.000 C 261.657 388.000,262.411 388.162,262.620 388.359 C 262.829 388.556,263.720 388.821,264.600 388.947 C 265.480 389.074,267.370 389.369,268.800 389.604 C 272.643 390.236,280.944 390.925,284.600 390.915 C 289.687 390.902,297.601 390.322,297.834 389.945 C 297.951 389.755,299.106 389.600,300.400 389.600 C 301.694 389.600,302.864 389.420,303.000 389.200 C 303.136 388.980,303.946 388.800,304.800 388.800 C 305.654 388.800,306.464 388.620,306.600 388.400 C 306.736 388.180,307.456 388.000,308.200 388.000 C 308.944 388.000,309.664 387.820,309.800 387.600 C 309.936 387.380,310.667 387.200,311.424 387.200 C 312.181 387.200,312.800 387.020,312.800 386.800 C 312.800 386.580,313.340 386.400,314.000 386.400 C 314.660 386.400,315.200 386.220,315.200 386.000 C 315.200 385.780,315.740 385.600,316.400 385.600 C 317.060 385.600,317.600 385.420,317.600 385.200 C 317.600 384.980,318.039 384.800,318.576 384.800 C 319.113 384.800,319.664 384.620,319.800 384.400 C 319.936 384.180,320.397 384.000,320.824 384.000 C 321.251 384.000,321.600 383.820,321.600 383.600 C 321.600 383.380,322.050 383.200,322.600 383.200 C 323.150 383.200,323.600 383.020,323.600 382.800 C 323.600 382.580,323.960 382.400,324.400 382.400 C 324.840 382.400,325.200 382.220,325.200 382.000 C 325.200 381.780,325.560 381.600,326.000 381.600 C 326.440 381.600,326.800 381.420,326.800 381.200 C 326.800 380.980,327.160 380.800,327.600 380.800 C 328.040 380.800,328.400 380.620,328.400 380.400 C 328.400 380.180,328.760 380.000,329.200 380.000 C 329.640 380.000,330.000 379.820,330.000 379.600 C 330.000 379.380,330.360 379.200,330.800 379.200 C 331.240 379.200,331.600 379.020,331.600 378.800 C 331.600 378.580,331.836 378.400,332.125 378.400 C 332.413 378.400,333.036 378.040,333.508 377.600 C 333.980 377.160,334.644 376.800,334.983 376.800 C 335.322 376.800,335.600 376.620,335.600 376.400 C 335.600 376.180,335.881 376.000,336.224 376.000 C 336.567 376.000,336.736 375.820,336.600 375.600 C 336.464 375.380,336.637 375.200,336.984 375.200 C 337.332 375.200,338.359 374.705,339.268 374.100 C 340.176 373.495,341.202 372.820,341.548 372.600 C 341.893 372.380,342.658 371.705,343.248 371.100 C 343.838 370.495,344.530 370.000,344.786 370.000 C 345.042 370.000,346.129 369.100,347.200 368.000 C 348.271 366.900,349.311 366.000,349.510 366.000 C 350.080 366.000,353.602 362.535,353.319 362.253 C 353.180 362.114,353.327 362.000,353.645 362.000 C 353.963 362.000,354.488 361.618,354.812 361.151 C 355.135 360.684,355.638 360.054,355.929 359.751 C 356.219 359.448,356.350 359.200,356.220 359.200 C 356.089 359.200,356.976 358.222,358.191 357.026 C 359.406 355.830,360.400 354.687,360.400 354.485 C 360.400 354.284,360.940 353.554,361.600 352.863 C 362.260 352.172,362.800 351.452,362.800 351.263 C 362.800 351.074,363.340 350.354,364.000 349.663 C 364.660 348.972,365.200 348.218,365.200 347.987 C 365.200 347.756,365.560 347.180,366.000 346.708 C 366.440 346.236,366.800 345.613,366.800 345.325 C 366.800 345.036,366.980 344.800,367.200 344.800 C 367.420 344.800,367.600 344.440,367.600 344.000 C 367.600 343.560,367.750 343.200,367.932 343.200 C 368.115 343.200,368.520 342.705,368.832 342.100 C 369.144 341.495,369.489 340.910,369.599 340.800 C 370.065 340.336,370.800 338.768,370.800 338.239 C 370.800 337.924,370.942 337.607,371.115 337.533 C 371.856 337.219,374.732 330.388,375.086 328.100 C 375.197 327.385,375.448 326.800,375.644 326.800 C 375.840 326.800,376.000 326.260,376.000 325.600 C 376.000 324.940,376.180 324.400,376.400 324.400 C 376.620 324.400,376.800 323.950,376.800 323.400 C 376.800 322.850,376.980 322.400,377.200 322.400 C 377.420 322.400,377.600 321.770,377.600 321.000 C 377.600 320.230,377.780 319.600,378.000 319.600 C 378.220 319.600,378.400 318.891,378.400 318.024 C 378.400 317.157,378.580 316.336,378.800 316.200 C 379.020 316.064,379.200 315.243,379.200 314.376 C 379.200 313.509,379.380 312.800,379.600 312.800 C 379.822 312.800,380.000 311.733,380.000 310.400 C 380.000 309.067,380.178 308.000,380.400 308.000 C 380.640 308.000,380.800 306.408,380.800 304.024 C 380.800 301.804,380.977 299.938,381.200 299.800 C 381.437 299.654,381.600 297.196,381.600 293.776 C 381.600 290.192,381.448 288.000,381.200 288.000 C 380.960 288.000,380.800 286.400,380.800 284.000 C 380.800 281.600,380.640 280.000,380.400 280.000 C 380.180 280.000,380.000 279.010,380.000 277.800 C 380.000 276.590,379.820 275.600,379.600 275.600 C 379.380 275.600,379.200 274.700,379.200 273.600 C 379.200 272.500,379.020 271.600,378.800 271.600 C 378.580 271.600,378.400 270.880,378.400 270.000 C 378.400 269.120,378.220 268.400,378.000 268.400 C 377.780 268.400,377.600 267.860,377.600 267.200 C 377.600 266.540,377.420 266.000,377.200 266.000 C 376.980 266.000,376.800 265.471,376.800 264.824 C 376.800 264.177,376.620 263.536,376.400 263.400 C 376.180 263.264,376.000 262.749,376.000 262.256 C 376.000 261.763,375.850 261.189,375.668 260.980 C 375.485 260.771,375.004 259.466,374.599 258.081 C 374.193 256.695,373.713 255.470,373.531 255.357 C 373.349 255.245,373.200 254.803,373.200 254.376 C 373.200 253.949,373.020 253.600,372.800 253.600 C 372.580 253.600,372.400 253.240,372.400 252.800 C 372.400 252.360,372.220 252.000,372.000 252.000 C 371.780 252.000,371.600 251.640,371.600 251.200 C 371.600 250.760,371.420 250.400,371.200 250.400 C 370.980 250.400,370.800 250.040,370.800 249.600 C 370.800 249.160,370.620 248.800,370.400 248.800 C 370.180 248.800,370.000 248.440,370.000 248.000 C 370.000 247.560,369.820 247.200,369.600 247.200 C 369.380 247.200,369.200 246.840,369.200 246.400 C 369.200 245.960,369.020 245.600,368.800 245.600 C 368.580 245.600,368.400 245.330,368.400 245.000 C 368.400 244.670,368.220 244.400,368.000 244.400 C 367.780 244.400,367.600 244.130,367.600 243.800 C 367.600 243.470,367.420 243.200,367.200 243.200 C 366.980 243.200,366.800 242.970,366.800 242.688 C 366.800 242.407,366.440 241.917,366.000 241.600 C 365.560 241.283,365.200 240.743,365.200 240.400 C 365.200 240.057,364.840 239.517,364.400 239.200 C 363.960 238.883,363.600 238.391,363.600 238.108 C 363.600 237.825,363.060 237.028,362.400 236.337 C 361.740 235.646,361.200 234.914,361.200 234.709 C 361.200 234.505,360.480 233.646,359.600 232.800 C 358.720 231.954,358.000 231.045,358.000 230.779 C 358.000 230.253,349.441 221.601,348.918 221.598 C 348.743 221.597,347.443 220.517,346.028 219.198 C 344.613 217.879,343.258 216.800,343.016 216.800 C 342.774 216.800,342.317 216.440,342.000 216.000 C 341.683 215.560,341.193 215.200,340.912 215.200 C 340.630 215.200,340.400 215.053,340.400 214.874 C 340.400 214.694,339.680 214.143,338.800 213.648 C 337.920 213.153,337.200 212.580,337.200 212.374 C 337.200 212.168,336.840 212.000,336.400 212.000 C 335.960 212.000,335.600 211.841,335.600 211.647 C 335.600 211.453,334.613 210.811,333.408 210.221 C 332.202 209.631,331.111 208.980,330.984 208.774 C 330.857 208.568,330.403 208.400,329.976 208.400 C 329.549 208.400,329.200 208.220,329.200 208.000 C 329.200 207.780,328.840 207.600,328.400 207.600 C 327.960 207.600,327.600 207.420,327.600 207.200 C 327.600 206.980,327.240 206.800,326.800 206.800 C 326.360 206.800,326.000 206.620,326.000 206.400 C 326.000 206.180,325.550 206.000,325.000 206.000 C 324.450 206.000,324.000 205.820,324.000 205.600 C 324.000 205.380,323.640 205.200,323.200 205.200 C 322.760 205.200,322.400 205.020,322.400 204.800 C 322.400 204.580,321.961 204.400,321.424 204.400 C 320.887 204.400,320.336 204.220,320.200 204.000 C 320.064 203.780,319.603 203.600,319.176 203.600 C 318.749 203.600,318.400 203.420,318.400 203.200 C 318.400 202.980,317.860 202.800,317.200 202.800 C 316.540 202.800,316.000 202.620,316.000 202.400 C 316.000 202.180,315.460 202.000,314.800 202.000 C 314.140 202.000,313.600 201.820,313.600 201.600 C 313.600 201.380,312.981 201.200,312.224 201.200 C 311.467 201.200,310.736 201.020,310.600 200.800 C 310.464 200.580,309.823 200.400,309.176 200.400 C 308.529 200.400,308.000 200.220,308.000 200.000 C 308.000 199.780,307.190 199.600,306.200 199.600 C 305.210 199.600,304.400 199.420,304.400 199.200 C 304.400 198.980,303.536 198.800,302.480 198.800 C 301.424 198.800,300.318 198.575,300.021 198.300 C 299.584 197.894,299.542 197.912,299.800 198.400 C 300.058 198.888,300.016 198.906,299.579 198.500 C 299.250 198.195,297.902 198.000,296.120 198.000 C 294.440 198.000,293.200 197.830,293.200 197.600 C 293.200 196.928,291.847 197.200,291.012 198.041 M290.200 213.200 C 290.336 213.420,291.977 213.600,293.847 213.600 C 296.012 213.600,297.157 213.745,297.000 214.000 C 296.847 214.248,297.596 214.400,298.976 214.400 C 300.199 214.400,301.200 214.580,301.200 214.800 C 301.200 215.020,301.920 215.200,302.800 215.200 C 303.680 215.200,304.400 215.380,304.400 215.600 C 304.400 215.820,305.120 216.000,306.000 216.000 C 306.880 216.000,307.600 216.180,307.600 216.400 C 307.600 216.620,308.039 216.800,308.576 216.800 C 309.113 216.800,309.664 216.980,309.800 217.200 C 309.936 217.420,310.487 217.600,311.024 217.600 C 311.561 217.600,312.000 217.780,312.000 218.000 C 312.000 218.220,312.349 218.400,312.776 218.400 C 313.203 218.400,313.664 218.580,313.800 218.800 C 313.936 219.020,314.487 219.200,315.024 219.200 C 315.561 219.200,316.000 219.380,316.000 219.600 C 316.000 219.820,316.360 220.000,316.800 220.000 C 317.240 220.000,317.600 220.180,317.600 220.400 C 317.600 220.620,317.845 220.800,318.144 220.800 C 318.801 220.800,323.745 223.276,323.933 223.700 C 324.007 223.865,324.390 224.000,324.784 224.000 C 325.179 224.000,325.726 224.270,326.000 224.600 C 326.274 224.930,326.746 225.200,327.049 225.200 C 327.352 225.200,327.600 225.380,327.600 225.600 C 327.600 225.820,327.825 226.000,328.100 226.001 C 328.375 226.001,329.230 226.541,330.000 227.200 C 330.770 227.859,331.543 228.399,331.718 228.399 C 331.893 228.400,332.490 228.853,333.044 229.408 C 333.598 229.962,334.248 230.294,334.488 230.146 C 334.749 229.985,334.809 230.062,334.638 230.338 C 334.481 230.592,334.547 230.800,334.785 230.800 C 335.023 230.800,336.212 231.795,337.429 233.011 C 338.645 234.227,339.815 235.114,340.030 234.982 C 340.244 234.849,340.375 234.889,340.321 235.070 C 340.266 235.252,340.757 235.953,341.411 236.628 C 345.251 240.596,348.000 243.697,348.000 244.061 C 348.000 244.291,348.540 244.983,349.200 245.600 C 349.860 246.217,350.400 246.943,350.400 247.214 C 350.400 247.484,350.716 247.997,351.103 248.353 C 351.489 248.709,352.060 249.495,352.370 250.100 C 352.681 250.705,353.085 251.200,353.268 251.200 C 353.450 251.200,353.600 251.478,353.600 251.817 C 353.600 252.156,353.960 252.820,354.400 253.292 C 354.840 253.764,355.200 254.387,355.200 254.675 C 355.200 254.964,355.380 255.200,355.600 255.200 C 355.820 255.200,356.000 255.560,356.000 256.000 C 356.000 256.440,356.180 256.800,356.400 256.800 C 356.620 256.800,356.800 257.070,356.800 257.400 C 356.800 257.730,356.980 258.000,357.200 258.000 C 357.420 258.000,357.600 258.360,357.600 258.800 C 357.600 259.240,357.760 259.600,357.955 259.600 C 358.151 259.600,358.433 260.252,358.583 261.049 C 358.732 261.846,359.001 262.791,359.181 263.149 C 359.883 264.552,360.394 265.912,361.226 268.600 C 361.702 270.140,362.251 271.713,362.446 272.095 C 362.641 272.477,362.800 273.231,362.800 273.771 C 362.800 274.311,362.980 274.864,363.200 275.000 C 363.420 275.136,363.600 275.957,363.600 276.824 C 363.600 277.691,363.780 278.400,364.000 278.400 C 364.222 278.400,364.400 279.456,364.400 280.767 C 364.400 282.068,364.572 283.193,364.782 283.267 C 364.992 283.340,365.191 285.560,365.224 288.200 C 365.257 290.872,365.470 293.229,365.705 293.517 C 366.002 293.882,365.990 294.170,365.663 294.497 C 365.363 294.797,365.200 296.681,365.200 299.856 C 365.200 302.689,365.031 304.857,364.800 305.000 C 364.580 305.136,364.400 306.216,364.400 307.400 C 364.400 308.584,364.220 309.664,364.000 309.800 C 363.780 309.936,363.600 310.656,363.600 311.400 C 363.600 312.144,363.420 312.864,363.200 313.000 C 362.980 313.136,362.800 313.867,362.800 314.624 C 362.800 315.381,362.620 316.000,362.400 316.000 C 362.180 316.000,362.000 316.540,362.000 317.200 C 362.000 317.860,361.820 318.400,361.600 318.400 C 361.380 318.400,361.200 318.940,361.200 319.600 C 361.200 320.260,361.020 320.800,360.800 320.800 C 360.580 320.800,360.400 321.340,360.400 322.000 C 360.400 322.660,360.264 323.200,360.098 323.200 C 359.769 323.200,358.869 325.545,358.525 327.300 C 358.406 327.905,358.150 328.400,357.955 328.400 C 357.760 328.400,357.600 328.760,357.600 329.200 C 357.600 329.640,357.420 330.000,357.200 330.000 C 356.980 330.000,356.800 330.360,356.800 330.800 C 356.800 331.240,356.620 331.600,356.400 331.600 C 356.180 331.600,356.000 331.870,356.000 332.200 C 356.000 332.530,355.820 332.800,355.600 332.800 C 355.380 332.800,355.200 333.070,355.200 333.400 C 355.200 333.730,355.020 334.000,354.800 334.000 C 354.580 334.000,354.400 334.360,354.400 334.800 C 354.400 335.240,354.220 335.600,354.000 335.600 C 353.780 335.600,353.600 335.836,353.600 336.125 C 353.600 336.413,353.240 337.036,352.800 337.508 C 352.360 337.980,352.000 338.578,352.000 338.836 C 352.000 339.095,351.685 339.597,351.300 339.953 C 350.915 340.309,349.977 341.411,349.215 342.400 C 348.453 343.390,347.688 344.260,347.515 344.333 C 347.342 344.407,347.200 344.625,347.200 344.818 C 347.200 345.661,336.212 356.800,335.380 356.800 C 335.035 356.800,334.864 356.980,335.000 357.200 C 335.136 357.420,334.967 357.600,334.624 357.600 C 334.281 357.600,333.996 357.735,333.992 357.900 C 333.988 358.065,333.088 358.732,331.992 359.383 C 330.896 360.033,330.000 360.708,330.000 360.883 C 330.000 361.057,329.764 361.200,329.475 361.200 C 329.187 361.200,328.602 361.525,328.175 361.922 C 327.749 362.320,326.815 362.903,326.100 363.220 C 325.385 363.536,324.800 363.931,324.800 364.098 C 324.800 364.264,324.519 364.400,324.176 364.400 C 323.807 364.400,323.669 364.588,323.838 364.862 C 324.007 365.136,323.949 365.215,323.694 365.058 C 323.458 364.912,322.993 365.064,322.661 365.396 C 322.329 365.728,321.774 366.000,321.429 366.000 C 321.083 366.000,320.800 366.180,320.800 366.400 C 320.800 366.620,320.440 366.800,320.000 366.800 C 319.560 366.800,319.200 366.980,319.200 367.200 C 319.200 367.420,318.739 367.600,318.176 367.600 C 317.613 367.600,317.240 367.742,317.348 367.915 C 317.455 368.088,317.060 368.270,316.471 368.319 C 315.882 368.367,315.340 368.585,315.267 368.803 C 315.193 369.022,314.788 369.200,314.367 369.200 C 313.945 369.200,313.600 369.380,313.600 369.600 C 313.600 369.820,313.060 370.000,312.400 370.000 C 311.740 370.000,311.200 370.180,311.200 370.400 C 311.200 370.620,310.750 370.800,310.200 370.800 C 309.650 370.800,309.200 370.980,309.200 371.200 C 309.200 371.420,308.660 371.600,308.000 371.600 C 307.340 371.600,306.800 371.780,306.800 372.000 C 306.800 372.220,306.080 372.400,305.200 372.400 C 304.320 372.400,303.600 372.580,303.600 372.800 C 303.600 373.020,302.779 373.200,301.776 373.200 C 300.633 373.200,300.047 373.353,300.206 373.610 C 300.345 373.835,300.311 373.994,300.130 373.963 C 298.805 373.732,295.194 374.067,295.400 374.400 C 295.562 374.663,291.945 374.800,284.847 374.800 C 278.079 374.800,273.955 374.651,273.800 374.400 C 273.664 374.180,272.573 374.000,271.376 374.000 C 270.179 374.000,269.200 373.820,269.200 373.600 C 269.200 373.380,268.480 373.200,267.600 373.200 C 266.720 373.200,266.000 373.020,266.000 372.800 C 266.000 372.580,265.280 372.400,264.400 372.400 C 263.520 372.400,262.800 372.220,262.800 372.000 C 262.800 371.780,262.271 371.600,261.624 371.600 C 260.977 371.600,260.336 371.420,260.200 371.200 C 260.064 370.980,259.524 370.800,259.000 370.800 C 258.476 370.800,257.936 370.620,257.800 370.400 C 257.664 370.180,257.203 370.000,256.776 370.000 C 256.349 370.000,256.000 369.820,256.000 369.600 C 256.000 369.380,255.651 369.200,255.224 369.200 C 254.797 369.200,254.336 369.020,254.200 368.800 C 254.064 368.580,253.513 368.400,252.976 368.400 C 252.439 368.400,252.000 368.220,252.000 368.000 C 252.000 367.780,251.640 367.600,251.200 367.600 C 250.760 367.600,250.400 367.420,250.400 367.200 C 250.400 366.980,250.040 366.800,249.600 366.800 C 249.160 366.800,248.800 366.620,248.800 366.400 C 248.800 366.180,248.440 366.000,248.000 366.000 C 247.560 366.000,247.200 365.820,247.200 365.600 C 247.200 365.380,246.922 365.200,246.583 365.200 C 246.244 365.200,245.580 364.840,245.108 364.400 C 244.636 363.960,244.013 363.600,243.725 363.600 C 243.436 363.600,243.200 363.409,243.200 363.176 C 243.200 362.943,243.035 362.855,242.832 362.980 C 242.630 363.105,242.225 362.972,241.932 362.683 C 241.640 362.395,240.140 361.286,238.600 360.218 C 237.060 359.150,235.740 358.124,235.667 357.938 C 235.593 357.752,235.275 357.600,234.960 357.600 C 234.645 357.600,233.032 356.245,231.375 354.588 C 229.718 352.931,228.187 351.685,227.972 351.818 C 227.756 351.951,227.630 351.821,227.690 351.530 C 227.751 351.238,227.562 351.049,227.270 351.110 C 226.979 351.170,226.845 351.051,226.972 350.845 C 227.100 350.638,226.528 349.759,225.702 348.891 C 223.051 346.104,221.600 344.428,221.600 344.154 C 221.600 344.007,221.060 343.371,220.400 342.740 C 219.740 342.109,219.200 341.391,219.200 341.143 C 219.200 340.896,218.884 340.403,218.497 340.047 C 218.111 339.691,217.540 338.905,217.230 338.300 C 216.919 337.695,216.515 337.200,216.332 337.200 C 216.150 337.200,216.000 336.829,216.000 336.376 C 216.000 335.923,215.820 335.664,215.600 335.800 C 215.380 335.936,215.200 335.767,215.200 335.424 C 215.200 335.081,215.020 334.800,214.800 334.800 C 214.580 334.800,214.400 334.440,214.400 334.000 C 214.400 333.560,214.220 333.200,214.000 333.200 C 213.780 333.200,213.600 332.840,213.600 332.400 C 213.600 331.960,213.420 331.600,213.200 331.600 C 212.980 331.600,212.800 331.240,212.800 330.800 C 212.800 330.360,212.620 330.000,212.400 330.000 C 212.180 330.000,212.000 329.640,212.000 329.200 C 212.000 328.760,211.820 328.400,211.600 328.400 C 211.380 328.400,211.200 328.040,211.200 327.600 C 211.200 327.160,211.065 326.799,210.900 326.797 C 210.494 326.793,209.600 324.814,209.600 323.920 C 209.600 323.524,209.460 323.200,209.289 323.200 C 209.117 323.200,208.665 322.075,208.283 320.700 C 207.901 319.325,207.411 317.647,207.194 316.972 C 206.977 316.296,206.800 315.362,206.800 314.895 C 206.800 314.429,206.620 313.936,206.400 313.800 C 206.180 313.664,206.000 312.944,206.000 312.200 C 206.000 311.456,205.820 310.736,205.600 310.600 C 205.380 310.464,205.200 309.474,205.200 308.400 C 205.200 307.326,205.020 306.336,204.800 306.200 C 204.580 306.064,204.400 304.444,204.400 302.600 C 204.400 300.756,204.220 299.136,204.000 299.000 C 203.471 298.673,203.471 289.327,204.000 289.000 C 204.220 288.864,204.400 287.143,204.400 285.176 C 204.400 283.059,204.563 281.600,204.800 281.600 C 205.020 281.600,205.200 280.700,205.200 279.600 C 205.200 278.500,205.380 277.600,205.600 277.600 C 205.820 277.600,206.000 277.028,206.000 276.328 C 206.000 275.110,206.563 272.885,207.200 271.585 C 207.365 271.246,207.636 270.173,207.800 269.200 C 207.964 268.227,208.285 267.064,208.512 266.615 C 209.478 264.707,209.600 264.371,209.600 263.605 C 209.600 263.162,209.780 262.800,210.000 262.800 C 210.220 262.800,210.400 262.440,210.400 262.000 C 210.400 261.560,210.580 261.200,210.800 261.200 C 211.020 261.200,211.200 260.840,211.200 260.400 C 211.200 259.960,211.380 259.600,211.600 259.600 C 211.820 259.600,212.000 259.240,212.000 258.800 C 212.000 258.360,212.180 258.000,212.400 258.000 C 212.620 258.000,212.800 257.640,212.800 257.200 C 212.800 256.760,212.980 256.400,213.200 256.400 C 213.420 256.400,213.600 256.130,213.600 255.800 C 213.600 255.470,213.780 255.200,214.000 255.200 C 214.220 255.200,214.400 254.840,214.400 254.400 C 214.400 253.960,214.580 253.600,214.800 253.600 C 215.020 253.600,215.200 253.280,215.200 252.888 C 215.200 252.497,215.560 251.917,216.000 251.600 C 216.440 251.283,216.800 250.743,216.800 250.400 C 216.800 250.057,217.160 249.517,217.600 249.200 C 218.040 248.883,218.400 248.391,218.400 248.108 C 218.400 247.825,218.940 247.028,219.600 246.337 C 220.260 245.646,220.800 244.910,220.800 244.701 C 220.800 244.492,221.303 243.844,221.917 243.260 C 222.531 242.677,223.566 241.484,224.217 240.609 C 225.796 238.486,230.275 234.000,230.816 234.000 C 231.053 234.000,231.119 233.792,230.962 233.538 C 230.790 233.260,230.852 233.185,231.117 233.349 C 231.360 233.499,232.371 232.808,233.368 231.811 C 234.364 230.815,235.337 230.000,235.530 230.000 C 235.723 230.000,236.406 229.505,237.048 228.900 C 237.689 228.295,238.706 227.545,239.307 227.232 C 239.908 226.920,240.400 226.515,240.400 226.332 C 240.400 226.150,240.655 226.000,240.967 226.000 C 241.278 226.000,241.593 225.848,241.667 225.663 C 241.780 225.377,243.278 224.575,250.016 221.194 C 250.447 220.977,251.158 220.620,251.595 220.400 C 252.032 220.180,252.662 220.000,252.995 220.000 C 253.328 220.000,253.600 219.820,253.600 219.600 C 253.600 219.380,253.960 219.200,254.400 219.200 C 254.840 219.200,255.200 219.020,255.200 218.800 C 255.200 218.580,255.650 218.400,256.200 218.400 C 256.750 218.400,257.200 218.220,257.200 218.000 C 257.200 217.780,257.740 217.600,258.400 217.600 C 259.060 217.600,259.600 217.420,259.600 217.200 C 259.600 216.980,260.140 216.800,260.800 216.800 C 261.460 216.800,262.000 216.620,262.000 216.400 C 262.000 216.180,262.619 216.000,263.376 216.000 C 264.133 216.000,264.864 215.820,265.000 215.600 C 265.136 215.380,265.957 215.200,266.824 215.200 C 267.691 215.200,268.400 215.020,268.400 214.800 C 268.400 214.580,269.300 214.400,270.400 214.400 C 271.500 214.400,272.400 214.220,272.400 214.000 C 272.400 213.765,273.800 213.600,275.800 213.600 C 277.800 213.600,279.200 213.435,279.200 213.200 C 279.200 212.953,281.259 212.800,284.576 212.800 C 287.729 212.800,290.055 212.965,290.200 213.200 M277.067 236.667 C 276.920 236.813,276.800 239.243,276.800 242.067 L 276.800 247.200 274.200 247.200 C 272.733 247.200,271.600 247.374,271.600 247.600 C 271.600 247.820,270.880 248.000,270.000 248.000 C 269.120 248.000,268.400 248.180,268.400 248.400 C 268.400 248.620,267.860 248.800,267.200 248.800 C 266.540 248.800,266.000 248.980,266.000 249.200 C 266.000 249.420,265.640 249.600,265.200 249.600 C 264.760 249.600,264.400 249.780,264.400 250.000 C 264.400 250.220,264.080 250.400,263.688 250.400 C 263.297 250.400,262.717 250.760,262.400 251.200 C 262.083 251.640,261.620 252.000,261.370 252.000 C 261.121 252.000,260.442 252.495,259.860 253.100 C 256.200 256.909,255.200 258.004,255.200 258.206 C 255.200 258.331,254.840 258.820,254.400 259.292 C 253.960 259.764,253.600 260.387,253.600 260.675 C 253.600 260.964,253.420 261.200,253.200 261.200 C 252.980 261.200,252.800 261.560,252.800 262.000 C 252.800 262.440,252.620 262.800,252.400 262.800 C 252.180 262.800,252.000 263.340,252.000 264.000 C 252.000 264.660,251.820 265.200,251.600 265.200 C 251.380 265.200,251.200 265.920,251.200 266.800 C 251.200 267.680,251.020 268.400,250.800 268.400 C 250.553 268.400,250.400 270.467,250.400 273.800 C 250.400 277.133,250.553 279.200,250.800 279.200 C 251.020 279.200,251.200 279.920,251.200 280.800 C 251.200 281.680,251.380 282.400,251.600 282.400 C 251.820 282.400,252.000 282.940,252.000 283.600 C 252.000 284.260,252.180 284.800,252.400 284.800 C 252.620 284.800,252.800 285.160,252.800 285.600 C 252.800 286.040,252.980 286.400,253.200 286.400 C 253.420 286.400,253.600 286.720,253.600 287.112 C 253.600 287.503,253.960 288.083,254.400 288.400 C 254.840 288.717,255.200 289.173,255.200 289.413 C 255.200 289.652,255.965 290.599,256.900 291.517 C 257.835 292.435,259.121 293.729,259.759 294.393 C 260.396 295.057,261.121 295.600,261.370 295.600 C 261.620 295.600,262.083 295.960,262.400 296.400 C 262.717 296.840,263.297 297.200,263.688 297.200 C 264.080 297.200,264.400 297.380,264.400 297.600 C 264.400 297.820,264.760 298.000,265.200 298.000 C 265.640 298.000,266.000 298.180,266.000 298.400 C 266.000 298.620,266.540 298.800,267.200 298.800 C 267.860 298.800,268.400 298.980,268.400 299.200 C 268.400 299.420,269.120 299.600,270.000 299.600 C 270.880 299.600,271.600 299.780,271.600 300.000 C 271.600 300.222,272.667 300.400,274.000 300.400 C 275.333 300.400,276.400 300.578,276.400 300.800 C 276.400 301.022,277.459 301.200,278.776 301.200 C 280.083 301.200,281.264 301.380,281.400 301.600 C 281.536 301.820,282.717 302.000,284.024 302.000 C 285.341 302.000,286.400 302.178,286.400 302.400 C 286.400 302.622,287.459 302.800,288.776 302.800 C 290.083 302.800,291.264 302.980,291.400 303.200 C 291.536 303.420,292.436 303.600,293.400 303.600 C 294.364 303.600,295.264 303.780,295.400 304.000 C 295.536 304.220,295.997 304.400,296.424 304.400 C 296.851 304.400,297.200 304.580,297.200 304.800 C 297.200 305.020,297.435 305.200,297.722 305.200 C 298.381 305.200,301.200 307.756,301.200 308.354 C 301.200 308.599,301.380 308.800,301.600 308.800 C 301.820 308.800,302.000 309.160,302.000 309.600 C 302.000 310.040,302.180 310.400,302.400 310.400 C 302.620 310.400,302.800 310.940,302.800 311.600 C 302.800 312.260,302.980 312.800,303.200 312.800 C 303.420 312.800,303.600 313.520,303.600 314.400 C 303.600 315.280,303.420 316.000,303.200 316.000 C 302.980 316.000,302.800 316.540,302.800 317.200 C 302.800 317.860,302.620 318.400,302.400 318.400 C 302.180 318.400,302.000 318.674,302.000 319.009 C 302.000 319.782,297.810 324.000,297.042 324.000 C 296.726 324.000,296.392 324.225,296.300 324.500 C 296.088 325.135,285.884 325.052,285.671 324.413 C 285.594 324.182,284.314 324.000,282.767 324.000 C 281.189 324.000,280.000 323.828,280.000 323.600 C 280.000 323.371,278.800 323.200,277.200 323.200 C 275.600 323.200,274.400 323.029,274.400 322.800 C 274.400 322.578,273.341 322.400,272.024 322.400 C 270.717 322.400,269.536 322.220,269.400 322.000 C 269.264 321.780,268.171 321.600,266.971 321.600 C 265.771 321.600,264.455 321.392,264.048 321.137 C 262.690 320.289,262.000 320.980,262.000 323.187 C 262.000 324.294,261.851 325.200,261.668 325.200 C 261.486 325.200,261.296 326.221,261.245 327.470 C 261.195 328.718,260.984 330.057,260.777 330.444 C 260.214 331.495,260.307 336.226,260.900 336.713 C 261.175 336.939,262.480 337.224,263.800 337.346 C 265.120 337.469,267.550 337.763,269.200 338.000 C 270.850 338.237,273.235 338.530,274.500 338.651 L 276.800 338.871 276.800 345.036 L 276.800 351.200 284.600 351.200 L 292.400 351.200 292.400 346.250 L 292.400 341.299 294.500 341.047 C 298.854 340.526,300.011 340.305,300.226 339.958 C 300.348 339.761,300.876 339.600,301.400 339.600 C 301.924 339.600,302.464 339.420,302.600 339.200 C 302.736 338.980,303.197 338.800,303.624 338.800 C 304.051 338.800,304.400 338.664,304.400 338.498 C 304.400 338.331,304.982 337.938,305.693 337.623 C 306.404 337.308,307.402 336.634,307.911 336.125 C 308.420 335.616,309.003 335.200,309.207 335.200 C 309.727 335.200,313.600 331.165,313.600 330.623 C 313.600 330.378,313.960 329.917,314.400 329.600 C 314.840 329.283,315.200 328.703,315.200 328.312 C 315.200 327.920,315.380 327.600,315.600 327.600 C 315.820 327.600,316.000 327.240,316.000 326.800 C 316.000 326.360,316.180 326.000,316.400 326.000 C 316.620 326.000,316.800 325.640,316.800 325.200 C 316.800 324.760,316.980 324.400,317.200 324.400 C 317.420 324.400,317.600 323.950,317.600 323.400 C 317.600 322.850,317.780 322.400,318.000 322.400 C 318.220 322.400,318.400 321.691,318.400 320.824 C 318.400 319.957,318.580 319.136,318.800 319.000 C 319.029 318.859,319.200 316.804,319.200 314.200 C 319.200 311.596,319.029 309.541,318.800 309.400 C 318.580 309.264,318.400 308.443,318.400 307.576 C 318.400 306.709,318.220 306.000,318.000 306.000 C 317.780 306.000,317.600 305.561,317.600 305.024 C 317.600 304.487,317.420 303.936,317.200 303.800 C 316.980 303.664,316.800 303.203,316.800 302.776 C 316.800 302.349,316.620 302.000,316.400 302.000 C 316.180 302.000,316.000 301.680,316.000 301.288 C 316.000 300.897,315.640 300.317,315.200 300.000 C 314.760 299.683,314.400 299.178,314.400 298.879 C 314.400 298.053,307.993 292.000,307.118 292.000 C 306.697 292.000,306.464 291.820,306.600 291.600 C 306.736 291.380,306.477 291.200,306.024 291.200 C 305.571 291.200,305.200 291.020,305.200 290.800 C 305.200 290.580,304.840 290.400,304.400 290.400 C 303.960 290.400,303.600 290.220,303.600 290.000 C 303.600 289.780,303.240 289.600,302.800 289.600 C 302.360 289.600,302.000 289.457,302.000 289.282 C 302.000 289.107,301.325 288.919,300.500 288.864 C 299.675 288.810,298.940 288.593,298.867 288.382 C 298.793 288.172,297.859 288.000,296.790 288.000 C 295.722 288.000,294.736 287.820,294.600 287.600 C 294.464 287.380,293.294 287.200,292.000 287.200 C 290.706 287.200,289.536 287.020,289.400 286.800 C 289.264 286.580,288.184 286.400,287.000 286.400 C 285.816 286.400,284.736 286.220,284.600 286.000 C 284.464 285.780,283.193 285.600,281.776 285.600 C 280.325 285.600,279.200 285.425,279.200 285.200 C 279.200 284.978,278.133 284.800,276.800 284.800 C 275.467 284.800,274.400 284.622,274.400 284.400 C 274.400 284.180,274.040 284.000,273.600 284.000 C 273.160 284.000,272.800 283.864,272.800 283.698 C 272.800 283.531,272.218 283.138,271.507 282.823 C 269.993 282.153,268.825 281.036,268.032 279.500 C 267.720 278.895,267.315 278.400,267.132 278.400 C 266.950 278.400,266.800 277.961,266.800 277.424 C 266.800 276.887,266.620 276.336,266.400 276.200 C 266.180 276.064,266.000 274.873,266.000 273.553 C 266.000 272.055,266.150 271.246,266.400 271.400 C 266.633 271.544,266.800 271.137,266.800 270.424 C 266.800 269.751,266.950 269.200,267.132 269.200 C 267.315 269.200,267.720 268.705,268.032 268.100 C 268.345 267.495,268.960 266.640,269.400 266.200 C 269.840 265.760,270.695 265.145,271.300 264.832 C 271.905 264.520,272.400 264.115,272.400 263.932 C 272.400 263.750,272.850 263.600,273.400 263.600 C 273.950 263.600,274.400 263.420,274.400 263.200 C 274.400 262.971,275.600 262.800,277.200 262.800 C 278.800 262.800,280.000 262.971,280.000 263.200 C 280.000 263.429,281.200 263.600,282.800 263.600 C 284.400 263.600,285.600 263.771,285.600 264.000 C 285.600 264.222,286.659 264.400,287.976 264.400 C 289.283 264.400,290.464 264.580,290.600 264.800 C 290.736 265.020,292.007 265.200,293.424 265.200 C 294.875 265.200,296.000 265.375,296.000 265.600 C 296.000 265.826,297.133 266.000,298.600 266.000 C 300.067 266.000,301.200 266.174,301.200 266.400 C 301.200 267.014,307.192 266.917,307.366 266.300 C 307.584 265.523,308.475 257.329,308.692 254.100 L 308.887 251.200 306.644 251.200 C 305.410 251.200,304.400 251.020,304.400 250.800 C 304.400 250.571,303.200 250.400,301.600 250.400 C 300.000 250.400,298.800 250.229,298.800 250.000 C 298.800 249.780,297.818 249.600,296.619 249.600 C 295.419 249.600,293.979 249.391,293.419 249.136 L 292.400 248.672 292.400 242.536 L 292.400 236.400 284.867 236.400 C 280.723 236.400,277.213 236.520,277.067 236.667 " stroke="none" fill="#fcbc34" fill-rule="evenodd"></path><path id="path1" d="M224.000 9.201 C 223.230 9.399,220.530 9.594,218.000 9.633 C 215.470 9.673,213.219 9.847,212.998 10.020 C 212.777 10.194,211.427 10.376,209.998 10.427 C 208.569 10.477,207.207 10.667,206.971 10.849 C 206.735 11.031,205.565 11.212,204.371 11.251 C 203.177 11.290,202.110 11.457,202.000 11.623 C 201.890 11.789,200.990 11.978,200.000 12.043 C 199.010 12.108,198.105 12.295,197.990 12.459 C 197.874 12.623,197.007 12.803,196.064 12.858 C 195.121 12.914,194.260 13.104,194.151 13.280 C 194.042 13.456,193.434 13.600,192.800 13.600 C 192.166 13.600,191.536 13.780,191.400 14.000 C 191.264 14.220,190.623 14.400,189.976 14.400 C 189.329 14.400,188.800 14.542,188.800 14.715 C 188.800 14.888,188.227 15.073,187.527 15.127 C 186.826 15.180,186.043 15.398,185.786 15.611 C 185.529 15.825,184.855 16.037,184.288 16.084 C 183.721 16.131,183.345 16.312,183.452 16.485 C 183.560 16.658,183.107 16.800,182.447 16.800 C 181.787 16.800,181.136 16.980,181.000 17.200 C 180.864 17.420,180.403 17.600,179.976 17.600 C 179.549 17.600,179.200 17.780,179.200 18.000 C 179.200 18.220,178.857 18.400,178.438 18.400 C 178.019 18.400,176.984 18.746,176.138 19.170 C 175.292 19.593,174.028 20.171,173.329 20.455 C 172.630 20.738,172.122 21.073,172.200 21.200 C 172.278 21.327,171.899 21.467,171.358 21.512 C 170.817 21.557,169.986 21.955,169.511 22.397 C 169.037 22.838,168.413 23.200,168.125 23.200 C 167.836 23.200,167.600 23.380,167.600 23.600 C 167.600 23.820,167.240 24.000,166.800 24.000 C 166.360 24.000,166.000 24.159,166.000 24.353 C 166.000 24.547,165.010 25.175,163.800 25.748 C 162.590 26.321,161.600 26.972,161.600 27.195 C 161.600 27.418,161.342 27.600,161.027 27.600 C 160.712 27.600,160.332 27.984,160.183 28.453 C 159.971 29.123,159.837 29.187,159.562 28.753 C 159.285 28.314,159.211 28.345,159.206 28.900 C 159.203 29.285,159.020 29.600,158.800 29.600 C 158.580 29.600,156.591 31.400,154.380 33.600 C 152.170 35.800,150.480 37.600,150.625 37.600 C 150.770 37.600,150.464 37.954,149.944 38.387 C 149.425 38.819,149.162 39.179,149.359 39.187 C 149.557 39.194,149.168 39.726,148.495 40.369 C 147.822 41.012,147.350 41.617,147.446 41.712 C 147.541 41.808,147.345 42.114,147.010 42.392 C 146.674 42.670,146.400 43.124,146.400 43.400 C 146.400 43.676,146.150 44.110,145.843 44.364 C 145.083 44.995,142.222 50.966,141.562 53.300 C 141.267 54.345,140.885 55.200,140.713 55.200 C 140.541 55.200,140.400 55.920,140.400 56.800 C 140.400 57.680,140.220 58.400,140.000 58.400 C 139.780 58.400,139.600 58.929,139.600 59.576 C 139.600 60.223,139.420 60.864,139.200 61.000 C 138.980 61.136,138.800 61.957,138.800 62.824 C 138.800 63.691,138.620 64.400,138.400 64.400 C 138.178 64.400,138.000 65.467,138.000 66.800 C 138.000 68.120,137.844 69.200,137.653 69.200 C 137.462 69.200,137.282 70.220,137.253 71.466 C 137.186 74.366,137.180 74.368,135.186 72.433 C 134.261 71.535,133.245 70.800,132.928 70.800 C 132.612 70.800,132.464 70.620,132.600 70.400 C 132.736 70.180,132.567 70.000,132.224 70.000 C 131.881 70.000,131.600 69.859,131.600 69.686 C 131.600 69.514,131.067 69.057,130.415 68.672 C 129.763 68.287,128.948 67.691,128.604 67.347 C 127.740 66.483,127.015 66.873,125.757 68.881 C 125.165 69.826,124.527 70.660,124.340 70.733 C 124.153 70.807,124.000 71.212,124.000 71.633 C 124.000 72.055,123.850 72.400,123.668 72.400 C 123.485 72.400,123.081 72.895,122.770 73.500 C 122.460 74.105,121.933 74.870,121.600 75.200 C 121.267 75.530,120.744 76.289,120.437 76.886 C 120.130 77.484,119.727 77.878,119.540 77.763 C 119.353 77.647,119.200 78.283,119.200 79.176 C 119.200 80.380,119.361 80.800,119.824 80.800 C 120.193 80.800,120.331 80.988,120.162 81.262 C 119.996 81.530,120.051 81.616,120.293 81.466 C 120.522 81.325,121.395 81.837,122.233 82.604 C 123.071 83.372,123.864 84.000,123.996 84.000 C 124.128 84.000,126.333 86.050,128.895 88.556 C 131.457 91.062,133.654 93.012,133.777 92.890 C 133.900 92.767,134.000 92.927,134.000 93.245 C 134.000 93.563,134.360 94.083,134.800 94.400 C 135.240 94.717,135.600 95.225,135.600 95.528 C 135.600 95.831,136.131 96.575,136.781 97.182 C 137.430 97.789,138.015 98.528,138.081 98.824 C 138.146 99.121,138.608 99.788,139.108 100.308 C 139.607 100.827,139.931 101.387,139.829 101.553 C 139.727 101.719,139.993 102.107,140.421 102.415 C 140.850 102.724,141.200 103.297,141.200 103.688 C 141.200 104.080,141.380 104.400,141.600 104.400 C 141.820 104.400,142.001 104.715,142.003 105.100 C 142.004 105.485,142.354 106.329,142.780 106.975 C 143.206 107.621,143.464 108.296,143.354 108.475 C 143.243 108.654,143.343 108.800,143.576 108.800 C 143.809 108.800,144.000 109.160,144.000 109.600 C 144.000 110.040,144.150 110.400,144.333 110.400 C 144.517 110.400,144.697 110.670,144.733 111.000 C 144.770 111.330,144.830 111.870,144.867 112.200 C 144.903 112.530,145.083 112.800,145.267 112.800 C 145.450 112.800,145.600 113.160,145.600 113.600 C 145.600 114.040,145.825 114.403,146.100 114.406 C 146.433 114.410,146.400 114.542,146.000 114.800 C 145.600 115.058,145.567 115.190,145.900 115.194 C 146.188 115.197,146.400 115.710,146.400 116.400 C 146.400 117.060,146.580 117.600,146.800 117.600 C 147.020 117.600,147.200 118.320,147.200 119.200 C 147.200 120.080,147.380 120.800,147.600 120.800 C 147.820 120.800,148.000 121.509,148.000 122.376 C 148.000 123.243,148.180 124.064,148.400 124.200 C 148.620 124.336,148.800 125.686,148.800 127.200 C 148.800 128.714,148.980 130.064,149.200 130.200 C 149.703 130.511,149.745 144.400,149.243 144.400 C 149.046 144.400,148.782 144.130,148.655 143.800 C 148.529 143.470,148.149 143.200,147.813 143.200 C 147.476 143.200,147.200 143.034,147.200 142.832 C 147.200 142.629,146.660 142.345,146.000 142.200 C 145.340 142.055,144.800 141.771,144.800 141.568 C 144.800 141.366,144.566 141.200,144.280 141.200 C 143.544 141.200,141.607 140.259,141.603 139.900 C 141.601 139.735,141.330 139.600,141.000 139.600 C 140.670 139.600,140.400 139.420,140.400 139.200 C 140.400 138.980,140.040 138.800,139.600 138.800 C 139.160 138.800,138.800 138.620,138.800 138.400 C 138.800 138.180,138.440 138.000,138.000 138.000 C 137.560 138.000,137.200 137.820,137.200 137.600 C 137.200 137.380,136.840 137.200,136.400 137.200 C 135.960 137.200,135.597 136.975,135.594 136.700 C 135.590 136.367,135.458 136.400,135.200 136.800 C 134.942 137.200,134.810 137.233,134.806 136.900 C 134.803 136.625,134.440 136.400,134.000 136.400 C 133.560 136.400,133.200 136.220,133.200 136.000 C 133.200 135.780,132.750 135.600,132.200 135.600 C 131.650 135.600,131.200 135.420,131.200 135.200 C 131.200 134.980,130.750 134.800,130.200 134.800 C 129.650 134.800,129.200 134.620,129.200 134.400 C 129.200 134.180,128.660 134.000,128.000 134.000 C 127.340 134.000,126.800 133.820,126.800 133.600 C 126.800 133.380,126.260 133.200,125.600 133.200 C 124.940 133.200,124.400 133.020,124.400 132.800 C 124.400 132.580,123.860 132.400,123.200 132.400 C 122.540 132.400,122.000 132.220,122.000 132.000 C 122.000 131.780,121.269 131.600,120.376 131.600 C 119.483 131.600,118.844 131.453,118.955 131.274 C 119.065 131.094,118.315 130.904,117.287 130.850 C 116.260 130.797,115.324 130.612,115.209 130.439 C 115.094 130.266,114.100 130.093,113.000 130.056 C 111.900 130.018,110.940 129.810,110.867 129.594 C 110.793 129.377,109.216 129.200,107.361 129.200 C 105.361 129.200,103.661 128.997,103.182 128.700 C 102.517 128.288,102.309 128.305,101.994 128.800 C 101.755 129.176,101.610 129.218,101.606 128.914 C 101.599 128.343,92.914 128.291,92.563 128.860 C 92.447 129.047,90.668 129.200,88.610 129.200 C 86.386 129.200,84.811 129.368,84.729 129.614 C 84.653 129.842,83.558 130.040,82.295 130.055 C 81.033 130.070,80.000 130.244,80.000 130.441 C 80.000 130.639,79.291 130.800,78.424 130.800 C 77.557 130.800,76.736 130.980,76.600 131.200 C 76.464 131.420,75.834 131.600,75.200 131.600 C 74.566 131.600,73.936 131.780,73.800 132.000 C 73.664 132.220,72.933 132.400,72.176 132.400 C 71.419 132.400,70.800 132.580,70.800 132.800 C 70.800 133.020,70.275 133.200,69.633 133.200 C 68.992 133.200,68.407 133.378,68.333 133.597 C 68.260 133.815,67.718 134.033,67.129 134.081 C 66.540 134.130,66.145 134.312,66.252 134.485 C 66.360 134.658,65.987 134.800,65.424 134.800 C 64.861 134.800,64.400 134.980,64.400 135.200 C 64.400 135.420,63.860 135.600,63.200 135.600 C 62.540 135.600,62.000 135.780,62.000 136.000 C 62.000 136.220,61.629 136.400,61.176 136.400 C 60.723 136.400,60.464 136.580,60.600 136.800 C 60.740 137.027,60.404 137.200,59.824 137.200 C 59.261 137.200,58.800 137.346,58.800 137.525 C 58.800 137.704,58.170 138.098,57.400 138.400 C 56.630 138.702,56.000 139.096,56.000 139.275 C 56.000 139.454,55.640 139.600,55.200 139.600 C 54.760 139.600,54.400 139.780,54.400 140.000 C 54.400 140.220,54.040 140.400,53.600 140.400 C 53.160 140.400,52.800 140.580,52.800 140.800 C 52.800 141.020,52.519 141.200,52.176 141.200 C 51.791 141.200,51.663 141.391,51.841 141.700 C 51.999 141.975,51.987 142.073,51.815 141.917 C 51.210 141.372,48.215 143.284,45.126 146.190 C 44.535 146.745,43.830 147.200,43.559 147.200 C 43.288 147.200,43.168 147.301,43.291 147.425 C 43.415 147.548,41.960 149.226,40.058 151.154 C 38.156 153.082,36.544 154.905,36.475 155.204 C 36.406 155.504,36.040 156.031,35.662 156.375 C 34.561 157.374,32.400 160.507,32.400 161.102 C 32.400 161.402,32.236 161.546,32.035 161.421 C 31.834 161.297,31.430 161.736,31.137 162.398 C 30.844 163.059,30.469 163.600,30.302 163.600 C 30.136 163.600,30.000 163.960,30.000 164.400 C 30.000 164.840,29.820 165.200,29.600 165.200 C 29.380 165.200,29.200 165.434,29.200 165.720 C 29.200 166.456,28.259 168.393,27.900 168.397 C 27.735 168.399,27.600 168.760,27.600 169.200 C 27.600 169.640,27.390 170.000,27.133 170.000 C 26.877 170.000,26.787 170.121,26.935 170.268 C 27.082 170.416,26.928 170.956,26.592 171.468 C 26.256 171.981,26.080 172.400,26.201 172.400 C 26.322 172.400,26.139 172.945,25.794 173.612 C 25.449 174.278,25.275 174.998,25.407 175.212 C 25.539 175.425,25.457 175.600,25.224 175.600 C 24.991 175.600,24.800 176.050,24.800 176.600 C 24.800 177.150,24.620 177.600,24.400 177.600 C 24.180 177.600,24.000 178.241,24.000 179.024 C 24.000 179.807,23.858 180.360,23.685 180.252 C 23.512 180.145,23.331 180.530,23.283 181.106 C 23.235 181.683,23.058 182.255,22.889 182.378 C 22.721 182.500,22.525 183.230,22.454 184.000 C 22.384 184.770,22.163 185.460,21.963 185.533 C 21.763 185.607,21.600 186.451,21.600 187.410 C 21.600 188.368,21.420 189.264,21.200 189.400 C 20.980 189.536,20.800 190.526,20.800 191.600 C 20.800 192.674,20.651 193.645,20.469 193.757 C 20.287 193.870,20.097 195.005,20.046 196.281 C 19.995 197.556,19.784 198.771,19.577 198.980 C 19.370 199.189,19.200 201.394,19.200 203.880 C 19.200 206.366,19.042 208.400,18.848 208.400 C 18.337 208.400,18.278 222.278,18.788 222.593 C 19.036 222.746,19.200 224.914,19.200 228.047 C 19.200 231.125,19.351 233.154,19.569 233.019 C 19.777 232.891,20.033 234.152,20.155 235.895 C 20.526 241.248,20.858 243.787,21.235 244.180 C 21.436 244.389,21.600 245.514,21.600 246.680 C 21.600 247.846,21.780 248.800,22.000 248.800 C 22.220 248.800,22.400 249.700,22.400 250.800 C 22.400 251.900,22.580 252.800,22.800 252.800 C 23.020 252.800,23.203 253.565,23.206 254.500 C 23.211 255.745,23.316 256.039,23.600 255.600 C 23.880 255.166,23.989 255.526,23.994 256.900 C 23.997 257.945,24.180 258.800,24.400 258.800 C 24.620 258.800,24.800 259.509,24.800 260.376 C 24.800 261.243,24.983 262.066,25.207 262.204 C 25.430 262.342,25.507 262.626,25.378 262.835 C 25.249 263.045,25.353 263.853,25.610 264.632 C 25.867 265.411,26.115 266.302,26.161 266.612 C 26.206 266.923,26.369 267.302,26.522 267.455 C 26.675 267.608,26.800 268.233,26.800 268.843 C 26.800 269.453,26.980 270.064,27.200 270.200 C 27.420 270.336,27.600 270.977,27.600 271.624 C 27.600 272.271,27.780 272.800,28.000 272.800 C 28.220 272.800,28.400 273.250,28.400 273.800 C 28.400 274.350,28.580 274.800,28.800 274.800 C 29.020 274.800,29.200 275.329,29.200 275.976 C 29.200 276.623,29.380 277.264,29.600 277.400 C 29.820 277.536,30.000 277.997,30.000 278.424 C 30.000 278.851,30.180 279.200,30.400 279.200 C 30.620 279.200,30.800 279.740,30.800 280.400 C 30.800 281.060,30.980 281.600,31.200 281.600 C 31.420 281.600,31.600 282.061,31.600 282.624 C 31.600 283.204,31.773 283.540,32.000 283.400 C 32.226 283.260,32.400 283.588,32.400 284.153 C 32.400 284.703,32.580 285.264,32.800 285.400 C 33.020 285.536,33.200 286.076,33.200 286.600 C 33.200 287.124,33.380 287.664,33.600 287.800 C 33.820 287.936,34.000 288.397,34.000 288.824 C 34.000 289.251,34.146 289.600,34.325 289.600 C 34.504 289.600,34.898 290.230,35.200 291.000 C 35.502 291.770,35.896 292.400,36.075 292.400 C 36.254 292.400,36.400 292.940,36.400 293.600 C 36.400 294.260,36.580 294.800,36.800 294.800 C 37.020 294.800,37.200 295.160,37.200 295.600 C 37.200 296.040,37.380 296.400,37.600 296.400 C 37.820 296.400,38.000 296.760,38.000 297.200 C 38.000 297.640,38.180 298.000,38.400 298.000 C 38.620 298.000,38.800 298.345,38.800 298.767 C 38.800 299.188,38.935 299.593,39.100 299.667 C 39.540 299.862,41.200 303.178,41.200 303.861 C 41.200 304.184,41.380 304.336,41.600 304.200 C 41.820 304.064,42.000 304.161,42.000 304.416 C 42.000 305.068,43.267 307.694,43.889 308.332 C 44.174 308.625,44.305 309.030,44.180 309.232 C 44.055 309.435,44.143 309.600,44.376 309.600 C 44.609 309.600,44.800 309.870,44.800 310.200 C 44.800 310.530,44.980 310.800,45.200 310.800 C 45.420 310.800,45.600 311.070,45.600 311.400 C 45.600 311.730,45.780 312.000,46.000 312.000 C 46.220 312.000,46.400 312.371,46.400 312.824 C 46.400 313.277,46.542 313.560,46.715 313.452 C 46.888 313.345,47.249 313.751,47.515 314.354 C 47.782 314.957,48.360 315.836,48.800 316.308 C 49.240 316.780,49.600 317.455,49.600 317.807 C 49.600 318.159,49.780 318.336,50.000 318.200 C 50.220 318.064,50.400 318.233,50.400 318.576 C 50.400 318.919,50.580 319.200,50.800 319.200 C 51.020 319.200,51.200 319.520,51.200 319.912 C 51.200 320.303,51.560 320.883,52.000 321.200 C 52.440 321.517,52.800 322.007,52.800 322.288 C 52.800 322.570,52.980 322.800,53.200 322.800 C 53.420 322.800,53.600 323.027,53.600 323.304 C 53.600 323.581,53.960 324.032,54.400 324.307 C 54.840 324.582,55.200 324.999,55.200 325.235 C 55.200 325.470,55.920 326.354,56.800 327.200 C 57.680 328.046,58.400 328.940,58.400 329.188 C 58.400 329.435,58.850 330.055,59.400 330.565 C 59.950 331.075,60.400 331.696,60.400 331.946 C 60.400 332.196,60.670 332.400,61.000 332.400 C 61.330 332.400,61.600 332.542,61.600 332.715 C 61.600 333.256,65.477 337.189,65.746 336.921 C 65.886 336.781,66.000 336.884,66.000 337.149 C 66.000 337.829,69.623 341.249,72.400 343.190 C 73.170 343.729,74.277 344.671,74.860 345.285 C 75.444 345.898,76.079 346.400,76.272 346.400 C 76.465 346.400,76.883 346.760,77.200 347.200 C 77.517 347.640,78.057 348.000,78.400 348.000 C 78.743 348.000,79.283 348.360,79.600 348.800 C 79.917 349.240,80.431 349.600,80.741 349.600 C 81.052 349.600,81.597 349.923,81.953 350.317 C 82.309 350.711,83.366 351.280,84.302 351.581 C 85.238 351.883,85.916 352.218,85.808 352.325 C 85.557 352.576,87.515 353.600,88.246 353.600 C 88.551 353.600,88.800 353.780,88.800 354.000 C 88.800 354.220,89.160 354.400,89.600 354.400 C 90.040 354.400,90.400 354.580,90.400 354.800 C 90.400 355.020,90.760 355.200,91.200 355.200 C 91.640 355.200,92.000 355.380,92.000 355.600 C 92.000 355.820,92.450 356.000,93.000 356.000 C 93.550 356.000,94.000 356.210,94.000 356.467 C 94.000 356.723,94.114 356.820,94.253 356.681 C 94.392 356.542,94.853 356.614,95.279 356.842 C 95.704 357.070,96.355 357.323,96.726 357.404 C 97.097 357.486,98.444 357.834,99.720 358.177 C 100.995 358.519,102.570 358.800,103.220 358.800 C 103.869 358.800,104.400 358.980,104.400 359.200 C 104.400 359.433,105.733 359.600,107.600 359.600 C 109.360 359.600,110.800 359.764,110.800 359.964 C 110.800 360.473,119.483 360.513,119.797 360.005 C 119.934 359.782,121.387 359.600,123.024 359.600 C 124.741 359.600,126.000 359.431,126.000 359.200 C 126.000 358.980,126.531 358.800,127.180 358.800 C 128.169 358.800,129.463 358.516,133.400 357.435 C 133.620 357.375,134.340 357.184,135.000 357.011 C 135.660 356.838,136.830 356.375,137.600 355.981 C 138.370 355.587,139.585 355.026,140.300 354.735 C 141.015 354.443,141.600 354.058,141.600 353.879 C 141.600 353.699,141.780 353.664,142.000 353.800 C 142.220 353.936,142.400 353.857,142.400 353.624 C 142.400 353.391,142.535 353.219,142.700 353.243 C 143.304 353.330,144.800 352.697,144.800 352.353 C 144.800 352.159,145.141 352.000,145.557 352.000 C 145.974 352.000,146.425 351.711,146.561 351.358 C 146.696 351.006,147.047 350.809,147.341 350.922 C 147.635 351.035,148.124 350.784,148.426 350.364 C 148.729 349.944,149.207 349.600,149.488 349.600 C 149.770 349.600,150.000 349.420,150.000 349.200 C 150.000 348.980,150.270 348.800,150.600 348.800 C 150.930 348.800,151.200 348.620,151.200 348.400 C 151.200 348.180,151.520 348.000,151.912 348.000 C 152.303 348.000,152.883 347.640,153.200 347.200 C 153.517 346.760,154.017 346.400,154.312 346.400 C 154.606 346.400,154.749 346.240,154.628 346.045 C 154.508 345.850,154.766 345.598,155.203 345.483 C 155.945 345.289,156.310 345.529,159.300 348.179 C 159.685 348.521,160.180 348.800,160.400 348.800 C 160.620 348.800,160.800 348.980,160.800 349.200 C 160.800 349.420,161.070 349.600,161.400 349.600 C 161.730 349.600,162.000 349.791,162.000 350.024 C 162.000 350.257,162.165 350.345,162.368 350.220 C 162.570 350.095,163.007 350.264,163.339 350.596 C 163.671 350.928,164.146 351.200,164.395 351.200 C 164.644 351.200,164.719 351.408,164.562 351.662 C 164.393 351.936,164.451 352.015,164.706 351.858 C 164.942 351.712,165.407 351.864,165.739 352.196 C 166.071 352.528,166.556 352.800,166.817 352.800 C 167.402 352.800,170.550 354.488,170.733 354.900 C 170.807 355.065,171.212 355.200,171.633 355.200 C 172.055 355.200,172.400 355.401,172.400 355.647 C 172.400 355.909,172.818 356.013,173.410 355.900 C 174.075 355.773,174.543 355.927,174.780 356.350 C 174.978 356.704,175.269 356.865,175.426 356.707 C 175.583 356.550,176.182 356.679,176.756 356.995 C 177.963 357.659,182.422 358.800,183.809 358.800 C 184.328 358.800,184.864 358.980,185.000 359.200 C 185.136 359.420,186.756 359.600,188.600 359.600 C 190.444 359.600,192.050 359.758,192.169 359.950 C 192.487 360.464,199.600 360.527,199.600 360.016 C 199.600 359.761,200.913 359.600,203.000 359.600 C 205.000 359.600,206.400 359.435,206.400 359.200 C 206.400 358.980,207.003 358.800,207.740 358.800 C 209.254 358.800,211.600 358.080,211.600 357.615 C 211.600 357.265,210.253 355.481,207.865 352.666 C 207.460 352.190,206.837 351.305,206.479 350.700 C 206.120 350.095,205.686 349.600,205.514 349.600 C 205.341 349.600,205.200 349.330,205.200 349.000 C 205.200 348.670,205.020 348.400,204.800 348.400 C 204.580 348.400,204.400 348.130,204.400 347.800 C 204.400 347.470,204.220 347.200,204.000 347.200 C 203.780 347.200,203.600 346.975,203.600 346.700 C 203.597 344.552,197.654 342.947,195.623 344.546 C 195.166 344.906,195.117 344.883,195.386 344.437 C 195.644 344.008,195.534 343.924,194.923 344.084 C 193.693 344.405,187.359 343.630,185.600 342.942 C 185.270 342.813,184.480 342.639,183.844 342.555 C 183.208 342.471,182.145 342.132,181.482 341.801 C 180.819 341.471,179.855 341.200,179.339 341.200 C 178.822 341.200,178.400 341.020,178.400 340.800 C 178.400 340.580,178.040 340.400,177.600 340.400 C 177.160 340.400,176.800 340.220,176.800 340.000 C 176.800 339.780,176.440 339.600,176.000 339.600 C 175.560 339.600,175.200 339.420,175.200 339.200 C 175.200 338.980,174.829 338.800,174.376 338.800 C 173.923 338.800,173.664 338.620,173.800 338.400 C 173.936 338.180,173.767 338.000,173.424 338.000 C 173.081 338.000,172.800 337.820,172.800 337.600 C 172.800 337.380,172.530 337.200,172.200 337.200 C 171.870 337.200,171.600 337.020,171.600 336.800 C 171.600 336.580,171.280 336.400,170.888 336.400 C 170.497 336.400,169.917 336.040,169.600 335.600 C 169.283 335.160,168.775 334.800,168.472 334.800 C 168.169 334.800,167.425 334.269,166.818 333.619 C 166.211 332.970,165.472 332.385,165.175 332.319 C 164.878 332.254,163.774 331.356,162.723 330.324 L 160.811 328.449 155.726 328.453 C 150.183 328.458,149.436 328.707,147.242 331.278 C 146.715 331.895,146.040 332.400,145.742 332.400 C 145.444 332.400,145.200 332.580,145.200 332.800 C 145.200 333.020,144.970 333.200,144.688 333.200 C 144.407 333.200,143.917 333.560,143.600 334.000 C 143.283 334.440,142.833 334.800,142.600 334.800 C 142.367 334.800,141.917 335.160,141.600 335.600 C 141.283 336.040,140.743 336.400,140.400 336.400 C 140.057 336.400,139.517 336.760,139.200 337.200 C 138.883 337.640,138.303 338.000,137.912 338.000 C 137.520 338.000,137.200 338.180,137.200 338.400 C 137.200 338.620,136.840 338.800,136.400 338.800 C 135.960 338.800,135.600 338.980,135.600 339.200 C 135.600 339.420,135.319 339.600,134.976 339.600 C 134.633 339.600,134.464 339.780,134.600 340.000 C 134.744 340.233,134.337 340.400,133.624 340.400 C 132.951 340.400,132.400 340.535,132.400 340.700 C 132.400 341.077,127.584 342.637,126.903 342.480 C 126.626 342.417,126.386 342.688,126.368 343.082 C 126.351 343.477,126.251 343.590,126.146 343.334 C 126.017 343.016,125.582 342.976,124.778 343.206 C 124.130 343.392,123.600 343.460,123.600 343.358 C 123.600 343.256,123.233 343.368,122.785 343.608 C 121.717 344.179,108.700 344.189,107.635 343.619 C 107.205 343.388,106.331 343.200,105.693 343.200 C 105.055 343.200,104.398 343.065,104.233 342.900 C 104.068 342.735,103.813 342.586,103.667 342.569 C 102.320 342.412,100.348 341.840,100.172 341.555 C 100.051 341.360,99.513 341.200,98.976 341.200 C 98.439 341.200,98.000 341.020,98.000 340.800 C 98.000 340.580,97.640 340.400,97.200 340.400 C 96.760 340.400,96.400 340.220,96.400 340.000 C 96.400 339.780,96.040 339.600,95.600 339.600 C 95.160 339.600,94.800 339.420,94.800 339.200 C 94.800 338.980,94.440 338.800,94.000 338.800 C 93.560 338.800,93.200 338.620,93.200 338.400 C 93.200 338.180,92.932 338.000,92.605 338.000 C 92.277 338.000,91.632 337.685,91.171 337.300 C 90.710 336.915,89.853 336.195,89.266 335.700 C 88.680 335.206,88.063 334.801,87.896 334.800 C 87.729 334.800,87.028 334.260,86.337 333.600 C 85.646 332.940,84.838 332.400,84.541 332.400 C 84.243 332.400,84.000 332.250,84.000 332.068 C 84.000 331.885,83.550 331.494,83.001 331.200 C 82.451 330.906,82.088 330.579,82.193 330.473 C 82.400 330.267,80.847 328.800,80.421 328.800 C 80.280 328.800,79.190 327.900,78.000 326.800 C 76.810 325.700,75.705 324.800,75.545 324.800 C 75.385 324.800,75.150 324.474,75.024 324.075 C 74.897 323.676,74.186 322.686,73.443 321.875 C 72.700 321.064,72.180 320.400,72.288 320.400 C 72.396 320.400,71.964 319.905,71.327 319.300 C 70.690 318.695,69.735 317.570,69.204 316.800 C 68.672 316.030,67.914 315.109,67.519 314.753 C 67.124 314.397,66.800 313.929,66.800 313.712 C 66.800 313.496,66.260 312.754,65.600 312.063 C 64.940 311.372,64.400 310.635,64.400 310.424 C 64.400 310.212,64.161 309.896,63.869 309.720 C 63.577 309.544,62.998 308.815,62.582 308.100 C 62.167 307.385,61.686 306.800,61.514 306.800 C 61.341 306.800,61.200 306.480,61.200 306.088 C 61.200 305.697,60.840 305.117,60.400 304.800 C 59.960 304.483,59.600 303.903,59.600 303.512 C 59.600 303.120,59.441 302.800,59.246 302.800 C 58.909 302.800,57.447 300.153,57.415 299.485 C 57.407 299.312,57.152 299.018,56.849 298.830 C 56.546 298.643,56.416 298.298,56.560 298.065 C 56.704 297.831,56.457 297.445,56.011 297.206 C 55.551 296.960,55.200 296.367,55.200 295.835 C 55.200 295.320,54.932 294.676,54.604 294.404 C 54.277 294.132,54.107 293.750,54.228 293.555 C 54.349 293.360,54.257 293.200,54.024 293.200 C 53.791 293.200,53.600 292.930,53.600 292.600 C 53.600 292.270,53.420 292.000,53.200 292.000 C 52.980 292.000,52.800 291.640,52.800 291.200 C 52.800 290.760,52.620 290.400,52.400 290.400 C 52.180 290.400,52.000 290.040,52.000 289.600 C 52.000 289.160,51.820 288.800,51.600 288.800 C 51.380 288.800,51.194 288.395,51.187 287.900 C 51.180 287.405,50.916 286.658,50.600 286.241 C 50.284 285.824,50.120 285.329,50.236 285.141 C 50.352 284.953,50.257 284.800,50.024 284.800 C 49.791 284.800,49.600 284.440,49.600 284.000 C 49.600 283.560,49.420 283.200,49.200 283.200 C 48.980 283.200,48.800 282.840,48.800 282.400 C 48.800 281.960,48.620 281.600,48.400 281.600 C 48.180 281.600,48.000 281.161,48.000 280.624 C 48.000 280.087,47.820 279.536,47.600 279.400 C 47.380 279.264,47.200 278.803,47.200 278.376 C 47.200 277.949,47.020 277.600,46.800 277.600 C 46.580 277.600,46.400 277.150,46.400 276.600 C 46.400 276.050,46.220 275.600,46.000 275.600 C 45.780 275.600,45.600 275.240,45.600 274.800 C 45.600 274.360,45.420 274.000,45.200 274.000 C 44.980 274.000,44.800 273.460,44.800 272.800 C 44.800 272.140,44.620 271.600,44.400 271.600 C 44.180 271.600,44.000 271.150,44.000 270.600 C 44.000 270.050,43.820 269.600,43.600 269.600 C 43.380 269.600,43.200 269.071,43.200 268.424 C 43.200 267.777,43.020 267.136,42.800 267.000 C 42.580 266.864,42.400 266.324,42.400 265.800 C 42.400 265.276,42.240 264.748,42.044 264.627 C 41.849 264.506,41.584 263.731,41.455 262.904 C 41.153 260.952,40.957 260.080,40.471 258.530 C 40.252 257.832,40.177 257.157,40.303 257.030 C 40.430 256.904,40.360 256.800,40.148 256.800 C 39.937 256.800,39.719 256.144,39.665 255.343 C 39.611 254.542,39.399 253.572,39.193 253.188 C 38.988 252.803,38.776 251.915,38.722 251.214 C 38.669 250.513,38.485 249.852,38.313 249.746 C 38.141 249.640,38.000 248.879,38.000 248.056 C 38.000 247.233,37.830 246.389,37.622 246.180 C 37.414 245.971,37.189 244.945,37.122 243.900 C 37.055 242.855,36.865 242.000,36.700 242.000 C 36.535 242.000,36.400 240.931,36.400 239.624 C 36.400 238.317,36.220 237.136,36.000 237.000 C 35.780 236.864,35.600 235.428,35.600 233.810 C 35.600 232.191,35.427 230.807,35.215 230.733 C 34.995 230.657,34.796 227.824,34.750 224.100 C 34.706 220.525,34.550 217.600,34.403 217.600 C 34.257 217.600,34.096 216.593,34.046 215.363 C 33.986 213.875,34.097 213.213,34.378 213.386 C 34.666 213.565,34.800 211.874,34.800 208.047 C 34.800 204.745,34.964 202.346,35.200 202.200 C 35.420 202.064,35.600 200.714,35.600 199.200 C 35.600 197.686,35.752 196.353,35.939 196.238 C 36.125 196.123,36.293 195.483,36.312 194.817 C 36.331 194.150,36.538 192.974,36.773 192.203 C 37.008 191.431,37.380 190.202,37.600 189.472 C 37.820 188.741,38.000 187.751,38.000 187.272 C 38.000 186.792,38.180 186.400,38.400 186.400 C 38.620 186.400,38.800 185.860,38.800 185.200 C 38.800 184.540,38.941 184.000,39.113 184.000 C 39.285 184.000,39.466 183.515,39.515 182.922 C 39.564 182.330,39.828 181.702,40.102 181.529 C 40.376 181.355,40.460 181.209,40.290 181.206 C 40.119 181.203,40.258 180.662,40.598 180.004 C 40.938 179.346,41.217 178.717,41.218 178.606 C 41.224 177.814,41.751 176.000,41.975 176.000 C 42.127 176.000,42.498 175.370,42.800 174.600 C 43.102 173.830,43.496 173.200,43.675 173.200 C 43.854 173.200,44.000 172.829,44.000 172.376 C 44.000 171.923,44.180 171.664,44.400 171.800 C 44.620 171.936,44.800 171.767,44.800 171.424 C 44.800 171.081,44.980 170.800,45.200 170.800 C 45.420 170.800,45.600 170.440,45.600 170.000 C 45.600 169.560,45.780 169.200,46.000 169.200 C 46.220 169.200,46.400 168.919,46.400 168.576 C 46.400 168.233,46.580 168.064,46.800 168.200 C 47.020 168.336,47.200 168.167,47.200 167.824 C 47.200 167.481,47.920 166.459,48.800 165.552 C 49.680 164.645,50.400 163.741,50.400 163.543 C 50.400 163.030,54.695 158.800,55.215 158.800 C 55.453 158.800,55.536 158.620,55.400 158.400 C 55.264 158.180,55.433 158.000,55.776 158.000 C 56.119 158.000,56.400 157.809,56.400 157.576 C 56.400 157.343,56.574 157.260,56.787 157.392 C 57.000 157.523,57.403 157.264,57.683 156.816 C 57.963 156.367,58.466 156.000,58.801 156.000 C 59.136 156.000,59.746 155.553,60.155 155.008 C 60.565 154.462,61.046 154.105,61.223 154.214 C 61.400 154.324,61.658 154.230,61.796 154.007 C 61.934 153.783,62.319 153.600,62.652 153.600 C 62.985 153.600,63.529 153.328,63.861 152.996 C 64.193 152.664,64.630 152.495,64.832 152.620 C 65.035 152.745,65.200 152.657,65.200 152.424 C 65.200 152.191,65.560 152.000,66.000 152.000 C 66.440 152.000,66.800 151.820,66.800 151.600 C 66.800 151.380,67.160 151.200,67.600 151.200 C 68.040 151.200,68.400 151.020,68.400 150.800 C 68.400 150.580,68.839 150.400,69.376 150.400 C 69.913 150.400,70.464 150.220,70.600 150.000 C 70.736 149.780,71.197 149.600,71.624 149.600 C 72.051 149.600,72.400 149.420,72.400 149.200 C 72.400 148.980,72.850 148.800,73.400 148.800 C 73.950 148.800,74.400 148.620,74.400 148.400 C 74.400 148.180,74.940 148.000,75.600 148.000 C 76.260 148.000,76.800 147.820,76.800 147.600 C 76.800 147.380,77.505 147.200,78.367 147.200 C 79.228 147.200,79.995 147.016,80.070 146.791 C 80.144 146.567,80.879 146.358,81.703 146.327 C 82.526 146.296,83.200 146.120,83.200 145.935 C 83.200 145.751,84.100 145.600,85.200 145.600 C 86.300 145.600,87.200 145.420,87.200 145.200 C 87.200 144.961,88.733 144.800,91.000 144.800 C 93.267 144.800,94.800 144.639,94.800 144.400 C 94.800 144.159,96.467 144.000,99.000 144.000 C 101.533 144.000,103.200 144.159,103.200 144.400 C 103.200 144.631,104.467 144.800,106.200 144.800 C 108.017 144.800,109.200 144.965,109.200 145.218 C 109.200 145.447,109.425 145.606,109.700 145.570 C 111.235 145.371,113.618 145.648,113.400 146.000 C 113.249 146.244,113.863 146.400,114.976 146.400 C 115.979 146.400,116.800 146.580,116.800 146.800 C 116.800 147.020,117.340 147.200,118.000 147.200 C 118.660 147.200,119.200 147.380,119.200 147.600 C 119.200 147.820,119.841 148.000,120.624 148.000 C 121.407 148.000,121.960 148.142,121.852 148.315 C 121.745 148.488,122.132 148.670,122.711 148.717 C 123.291 148.765,123.944 148.984,124.162 149.202 C 124.381 149.421,124.884 149.600,125.280 149.600 C 125.676 149.600,126.000 149.780,126.000 150.000 C 126.000 150.220,126.253 150.400,126.562 150.400 C 127.099 150.400,129.461 151.461,131.600 152.662 C 132.150 152.971,133.275 153.531,134.100 153.906 C 134.925 154.282,135.600 154.726,135.600 154.894 C 135.600 155.062,135.960 155.200,136.400 155.200 C 136.840 155.200,137.200 155.380,137.200 155.600 C 137.200 155.820,137.560 156.000,138.000 156.000 C 138.440 156.000,138.800 156.145,138.800 156.323 C 138.800 156.501,139.520 156.964,140.400 157.352 C 141.280 157.740,142.000 158.225,142.000 158.429 C 142.000 158.633,142.268 158.800,142.597 158.800 C 142.925 158.800,143.418 159.160,143.693 159.600 C 143.968 160.040,144.520 160.400,144.920 160.400 C 145.320 160.400,145.536 160.580,145.400 160.800 C 145.264 161.020,145.371 161.200,145.638 161.200 C 145.905 161.200,146.809 161.920,147.646 162.800 L 149.168 164.400 155.403 164.400 L 161.638 164.400 163.568 162.500 C 164.630 161.455,165.745 160.541,166.045 160.468 C 166.346 160.395,166.684 160.215,166.796 160.067 C 166.908 159.920,167.495 159.544,168.100 159.232 C 168.705 158.920,169.200 158.515,169.200 158.332 C 169.200 158.150,169.481 158.000,169.824 158.000 C 170.167 158.000,170.335 157.818,170.197 157.595 C 170.058 157.370,170.492 157.082,171.173 156.945 C 171.848 156.810,172.400 156.542,172.400 156.350 C 172.400 156.158,172.625 155.996,172.900 155.991 C 173.175 155.986,173.850 155.630,174.400 155.200 C 174.950 154.770,175.715 154.414,176.100 154.409 C 176.485 154.404,176.800 154.220,176.800 154.000 C 176.800 153.780,177.160 153.600,177.600 153.600 C 178.040 153.600,178.400 153.420,178.400 153.200 C 178.400 152.980,178.760 152.800,179.200 152.800 C 179.640 152.800,180.000 152.620,180.000 152.400 C 180.000 152.180,180.360 152.000,180.800 152.000 C 181.240 152.000,181.600 151.820,181.600 151.600 C 181.600 151.380,181.960 151.200,182.400 151.200 C 182.840 151.200,183.200 151.020,183.200 150.800 C 183.200 150.580,183.639 150.400,184.176 150.400 C 184.713 150.400,185.264 150.220,185.400 150.000 C 185.536 149.780,185.997 149.600,186.424 149.600 C 186.851 149.600,187.200 149.420,187.200 149.200 C 187.200 148.980,187.639 148.800,188.176 148.800 C 188.713 148.800,189.264 148.620,189.400 148.400 C 189.536 148.180,190.087 148.000,190.624 148.000 C 191.161 148.000,191.600 147.820,191.600 147.600 C 191.600 147.380,192.320 147.200,193.200 147.200 C 194.080 147.200,194.800 147.020,194.800 146.800 C 194.800 146.580,195.531 146.400,196.424 146.400 C 197.404 146.400,197.949 146.242,197.800 146.000 C 197.647 145.752,198.396 145.600,199.776 145.600 C 200.999 145.600,202.000 145.420,202.000 145.200 C 202.000 144.967,203.325 144.800,205.176 144.800 C 206.956 144.800,208.467 144.616,208.611 144.382 C 208.928 143.869,217.600 143.932,217.600 144.446 C 217.600 144.641,219.040 144.800,220.800 144.800 C 222.667 144.800,224.000 144.967,224.000 145.200 C 224.000 145.420,224.799 145.600,225.776 145.600 C 226.753 145.600,227.664 145.780,227.800 146.000 C 227.936 146.220,228.656 146.400,229.400 146.400 C 230.144 146.400,230.864 146.580,231.000 146.800 C 231.136 147.020,231.856 147.200,232.600 147.200 C 233.344 147.200,234.064 147.380,234.200 147.600 C 234.336 147.820,234.876 148.000,235.400 148.000 C 235.924 148.000,236.464 148.180,236.600 148.400 C 236.736 148.620,237.287 148.800,237.824 148.800 C 238.361 148.800,238.800 148.980,238.800 149.200 C 238.800 149.420,239.115 149.599,239.500 149.598 C 240.276 149.595,250.122 154.409,250.333 154.894 C 250.407 155.062,250.722 155.200,251.033 155.200 C 251.345 155.200,251.600 155.380,251.600 155.600 C 251.600 155.820,251.788 156.000,252.017 156.000 C 252.247 156.000,252.920 156.450,253.513 157.000 C 254.107 157.550,254.827 158.000,255.113 158.000 C 255.736 158.000,259.994 162.272,259.683 162.584 C 259.564 162.703,259.767 162.800,260.133 162.800 C 260.500 162.800,260.800 162.967,260.800 163.171 C 260.800 163.376,261.025 163.781,261.300 164.071 C 261.575 164.362,262.055 165.095,262.368 165.700 C 262.680 166.305,263.205 166.800,263.534 166.800 C 263.864 166.800,264.022 166.911,263.886 167.048 C 263.750 167.184,263.901 167.558,264.223 167.880 C 264.544 168.201,264.688 168.658,264.542 168.894 C 264.385 169.149,264.464 169.207,264.738 169.038 C 265.012 168.869,265.200 169.007,265.200 169.376 C 265.200 169.719,265.380 170.000,265.600 170.000 C 265.820 170.000,266.000 170.360,266.000 170.800 C 266.000 171.240,266.146 171.600,266.325 171.600 C 266.504 171.600,266.898 172.230,267.200 173.000 C 267.502 173.770,267.896 174.400,268.075 174.400 C 268.254 174.400,268.400 174.681,268.400 175.024 C 268.400 175.367,268.542 175.560,268.715 175.452 C 268.888 175.345,269.070 175.740,269.119 176.329 C 269.167 176.918,269.385 177.460,269.603 177.533 C 269.822 177.607,270.000 178.012,270.000 178.433 C 270.000 178.855,270.180 179.200,270.400 179.200 C 270.620 179.200,270.800 179.639,270.800 180.176 C 270.800 180.713,270.980 181.264,271.200 181.400 C 271.420 181.536,271.600 181.997,271.600 182.424 C 271.600 182.851,271.780 183.200,272.000 183.200 C 272.220 183.200,272.400 183.650,272.400 184.200 C 272.400 184.750,272.580 185.200,272.800 185.200 C 273.020 185.200,273.200 186.010,273.200 187.000 C 273.200 187.990,273.380 188.800,273.600 188.800 C 273.820 188.800,274.000 189.430,274.000 190.200 C 274.000 190.970,274.180 191.600,274.400 191.600 C 274.620 191.600,274.803 192.545,274.806 193.700 C 274.811 195.296,274.915 195.656,275.238 195.200 C 275.554 194.756,275.601 195.053,275.420 196.347 L 275.175 198.094 276.488 197.811 C 277.209 197.654,280.810 197.438,284.490 197.330 L 291.180 197.133 291.121 195.266 C 291.089 194.240,290.921 193.111,290.748 192.757 C 290.574 192.403,290.388 191.446,290.333 190.629 C 290.278 189.812,290.090 189.056,289.916 188.948 C 289.742 188.841,289.600 188.079,289.600 187.256 C 289.600 186.433,289.426 185.586,289.213 185.373 C 289.001 185.161,288.783 184.405,288.728 183.693 C 288.674 182.982,288.488 182.400,288.315 182.400 C 288.142 182.400,288.000 181.871,288.000 181.224 C 288.000 180.577,287.820 179.936,287.600 179.800 C 287.380 179.664,287.200 179.124,287.200 178.600 C 287.200 178.076,287.020 177.536,286.800 177.400 C 286.580 177.264,286.400 176.818,286.400 176.410 C 286.400 176.001,286.222 175.607,286.003 175.533 C 285.785 175.460,285.566 174.905,285.516 174.300 C 285.466 173.695,285.285 173.200,285.113 173.200 C 284.941 173.200,284.800 172.840,284.800 172.400 C 284.800 171.960,284.620 171.600,284.400 171.600 C 284.180 171.600,284.000 171.240,284.000 170.800 C 284.000 170.360,283.820 170.000,283.600 170.000 C 283.380 170.000,283.200 169.640,283.200 169.200 C 283.200 168.760,283.020 168.400,282.800 168.400 C 282.580 168.400,282.400 167.984,282.400 167.475 C 282.400 166.967,282.085 166.197,281.700 165.763 C 280.580 164.503,279.596 162.540,279.911 162.192 C 280.070 162.016,279.975 162.001,279.700 162.159 C 279.391 162.337,279.200 162.209,279.200 161.824 C 279.200 161.481,279.020 161.200,278.800 161.200 C 278.580 161.200,278.400 160.930,278.400 160.600 C 278.400 160.270,278.085 159.646,277.700 159.214 C 277.315 158.781,276.595 157.977,276.100 157.428 C 275.605 156.878,275.197 156.107,275.194 155.714 C 275.189 155.107,275.130 155.090,274.800 155.600 C 274.486 156.086,274.411 156.030,274.406 155.307 C 274.399 154.326,264.945 144.627,263.570 144.190 C 263.146 144.056,262.800 143.813,262.800 143.650 C 262.800 143.487,262.080 143.036,261.200 142.648 C 260.320 142.260,259.600 141.775,259.600 141.571 C 259.600 141.367,259.240 141.200,258.800 141.200 C 258.360 141.200,258.000 141.020,258.000 140.800 C 258.000 140.580,257.730 140.400,257.400 140.400 C 257.070 140.400,256.800 140.240,256.800 140.044 C 256.800 139.848,255.945 139.287,254.900 138.798 C 253.855 138.308,252.868 137.703,252.706 137.454 C 252.509 137.150,252.408 137.198,252.400 137.600 C 252.393 137.953,252.267 138.035,252.094 137.800 C 251.662 137.212,250.103 136.400,249.405 136.400 C 249.072 136.400,248.800 136.220,248.800 136.000 C 248.800 135.780,248.339 135.600,247.776 135.600 C 247.213 135.600,246.836 135.465,246.938 135.300 C 247.040 135.135,246.651 134.972,246.074 134.937 C 245.497 134.902,244.959 134.677,244.879 134.437 C 244.799 134.197,244.208 134.000,243.567 134.000 C 242.925 134.000,242.400 133.820,242.400 133.600 C 242.400 133.380,241.961 133.200,241.424 133.200 C 240.887 133.200,240.336 133.020,240.200 132.800 C 240.064 132.580,239.524 132.400,239.000 132.400 C 238.476 132.400,237.936 132.220,237.800 132.000 C 237.664 131.780,236.969 131.600,236.256 131.600 C 235.543 131.600,234.789 131.438,234.580 131.241 C 234.223 130.904,233.158 130.702,228.800 130.144 C 227.810 130.018,226.740 129.708,226.423 129.457 C 225.959 129.090,225.916 129.118,226.200 129.600 C 226.487 130.087,226.444 130.111,225.972 129.730 C 225.646 129.467,223.773 129.213,221.718 129.154 C 219.699 129.096,218.124 128.923,218.219 128.770 C 218.313 128.617,216.101 128.484,213.301 128.474 C 210.502 128.465,208.113 128.617,207.993 128.811 C 207.873 129.006,206.112 129.195,204.080 129.232 C 202.048 129.269,200.288 129.457,200.169 129.650 C 200.050 129.842,199.164 130.000,198.200 130.000 C 197.236 130.000,196.336 130.180,196.200 130.400 C 196.064 130.620,195.053 130.800,193.953 130.800 C 192.721 130.800,192.048 130.954,192.200 131.200 C 192.347 131.438,191.871 131.600,191.024 131.600 C 190.241 131.600,189.600 131.743,189.600 131.918 C 189.600 132.093,188.925 132.281,188.100 132.336 C 187.275 132.390,186.540 132.607,186.467 132.818 C 186.393 133.028,185.909 133.200,185.390 133.200 C 184.872 133.200,184.336 133.380,184.200 133.600 C 184.064 133.820,183.413 134.000,182.753 134.000 C 182.055 134.000,181.656 134.167,181.800 134.400 C 181.945 134.634,181.530 134.800,180.800 134.800 C 180.070 134.800,179.655 134.966,179.800 135.200 C 179.945 135.434,179.530 135.600,178.800 135.600 C 178.070 135.600,177.655 135.766,177.800 136.000 C 177.941 136.228,177.596 136.400,177.000 136.400 C 176.404 136.400,176.059 136.572,176.200 136.800 C 176.336 137.020,176.112 137.200,175.703 137.200 C 174.791 137.200,172.807 138.089,172.803 138.500 C 172.801 138.665,172.350 138.800,171.800 138.800 C 171.250 138.800,170.800 138.980,170.800 139.200 C 170.800 139.420,170.530 139.600,170.200 139.600 C 169.870 139.600,169.600 139.780,169.600 140.000 C 169.600 140.220,169.120 140.400,168.533 140.400 C 167.947 140.400,167.590 140.523,167.740 140.673 C 167.890 140.824,167.443 141.186,166.746 141.479 C 165.099 142.172,165.235 142.764,165.182 134.684 C 165.156 130.792,164.970 127.505,164.767 127.380 C 164.565 127.255,164.400 125.903,164.400 124.376 C 164.400 122.792,164.228 121.600,164.000 121.600 C 163.780 121.600,163.600 120.711,163.600 119.624 C 163.600 118.537,163.420 117.536,163.200 117.400 C 162.980 117.264,162.800 116.533,162.800 115.776 C 162.800 115.019,162.620 114.400,162.400 114.400 C 162.180 114.400,162.000 113.669,162.000 112.776 C 162.000 111.796,161.842 111.251,161.600 111.400 C 161.367 111.544,161.200 111.145,161.200 110.447 C 161.200 109.787,161.020 109.136,160.800 109.000 C 160.580 108.864,160.400 108.313,160.400 107.776 L 160.400 106.800 166.700 106.753 C 170.165 106.727,173.251 106.740,173.557 106.783 C 173.864 106.826,174.225 106.683,174.359 106.466 C 174.494 106.248,175.593 106.021,176.802 105.963 C 178.011 105.904,179.132 105.663,179.294 105.428 C 179.479 105.158,179.592 105.222,179.600 105.600 C 179.610 106.087,179.677 106.098,179.954 105.660 C 180.146 105.358,180.981 105.120,181.848 105.120 C 182.702 105.121,183.495 104.967,183.612 104.779 C 183.729 104.591,184.507 104.391,185.340 104.335 C 186.174 104.279,186.944 104.090,187.052 103.916 C 187.159 103.742,187.676 103.600,188.200 103.600 C 188.724 103.600,189.264 103.420,189.400 103.200 C 189.536 102.980,190.097 102.800,190.647 102.800 C 191.212 102.800,191.540 102.626,191.400 102.400 C 191.260 102.173,191.596 102.000,192.176 102.000 C 192.739 102.000,193.200 101.820,193.200 101.600 C 193.200 101.380,193.549 101.200,193.976 101.200 C 194.403 101.200,194.864 101.020,195.000 100.800 C 195.136 100.580,195.563 100.400,195.948 100.400 C 196.334 100.400,197.036 100.040,197.508 99.600 C 197.980 99.160,198.644 98.800,198.983 98.800 C 199.322 98.800,199.600 98.662,199.600 98.494 C 199.600 98.326,200.275 97.894,201.100 97.534 C 202.861 96.766,204.496 95.429,204.126 95.059 C 203.983 94.917,204.265 94.800,204.751 94.800 C 205.238 94.800,206.303 94.172,207.118 93.406 C 212.169 88.653,216.799 83.812,216.801 83.282 C 216.801 83.127,217.341 82.370,218.000 81.600 C 218.659 80.830,219.199 79.990,219.199 79.733 C 219.200 79.477,219.366 79.207,219.570 79.133 C 219.773 79.060,219.998 78.730,220.070 78.400 C 220.141 78.070,220.543 77.485,220.961 77.100 C 221.380 76.715,221.508 76.400,221.246 76.400 C 220.960 76.400,221.055 76.092,221.485 75.631 C 222.204 74.859,224.550 70.549,224.658 69.800 C 224.808 68.757,225.329 67.600,225.647 67.600 C 225.841 67.600,226.003 67.015,226.006 66.300 C 226.011 65.314,226.106 65.145,226.400 65.600 C 226.694 66.055,226.789 65.886,226.794 64.900 C 226.797 64.185,226.980 63.600,227.200 63.600 C 227.420 63.600,227.600 63.240,227.600 62.800 C 227.600 62.360,227.780 62.000,228.000 62.000 C 228.220 62.000,228.400 61.471,228.400 60.824 C 228.400 60.177,228.580 59.536,228.800 59.400 C 229.020 59.264,229.200 58.713,229.200 58.176 C 229.200 57.639,229.380 57.200,229.600 57.200 C 229.820 57.200,230.000 56.660,230.000 56.000 C 230.000 55.340,230.180 54.800,230.400 54.800 C 230.620 54.800,230.800 54.181,230.800 53.424 C 230.800 52.667,230.980 51.936,231.200 51.800 C 231.420 51.664,231.600 50.833,231.600 49.953 C 231.600 48.988,231.759 48.451,232.000 48.600 C 232.335 48.807,232.628 47.042,232.447 45.900 C 232.421 45.735,232.580 45.600,232.800 45.600 C 233.020 45.600,233.200 44.880,233.200 44.000 C 233.200 43.120,233.380 42.400,233.600 42.400 C 233.820 42.400,234.000 41.536,234.000 40.480 C 234.000 39.424,234.225 38.318,234.500 38.021 C 234.906 37.584,234.888 37.542,234.400 37.800 C 233.912 38.058,233.894 38.016,234.300 37.579 C 234.575 37.282,234.800 36.277,234.800 35.344 C 234.800 34.411,234.980 33.536,235.200 33.400 C 235.420 33.264,235.600 31.914,235.600 30.400 C 235.600 28.886,235.780 27.536,236.000 27.400 C 236.235 27.255,236.400 24.926,236.400 21.768 L 236.400 16.383 234.238 14.220 C 233.048 13.031,231.968 12.165,231.838 12.296 C 231.707 12.426,231.600 12.310,231.600 12.038 C 231.600 11.766,231.334 11.277,231.009 10.952 C 230.684 10.627,230.256 10.071,230.058 9.717 C 229.628 8.949,226.133 8.651,224.000 9.201 M220.000 27.600 C 220.000 28.920,219.851 30.000,219.668 30.000 C 219.486 30.000,219.296 31.035,219.246 32.300 C 219.196 33.565,218.985 34.660,218.778 34.733 C 218.570 34.807,218.400 35.752,218.400 36.833 C 218.400 37.915,218.254 38.800,218.075 38.800 C 217.896 38.800,217.706 39.655,217.653 40.700 C 217.600 41.745,217.387 42.660,217.179 42.733 C 216.970 42.807,216.800 43.582,216.800 44.457 C 216.800 45.415,216.641 45.949,216.400 45.800 C 216.158 45.651,216.000 46.196,216.000 47.176 C 216.000 48.069,215.820 48.800,215.600 48.800 C 215.380 48.800,215.197 49.205,215.194 49.700 C 215.187 50.676,214.318 53.415,213.874 53.859 C 213.723 54.010,213.600 54.553,213.600 55.067 C 213.600 55.580,213.420 56.000,213.200 56.000 C 212.980 56.000,212.800 56.360,212.800 56.800 C 212.800 57.240,212.620 57.600,212.400 57.600 C 212.180 57.600,212.000 57.935,212.000 58.344 C 212.000 58.753,211.476 60.148,210.835 61.444 C 209.493 64.160,209.047 65.277,209.136 65.700 C 209.171 65.865,209.020 66.000,208.800 66.000 C 208.580 66.000,208.400 66.283,208.400 66.629 C 208.400 66.974,208.128 67.529,207.796 67.861 C 207.464 68.193,207.312 68.658,207.458 68.894 C 207.615 69.149,207.536 69.207,207.262 69.038 C 206.988 68.869,206.800 69.007,206.800 69.376 C 206.800 69.719,206.620 70.000,206.400 70.000 C 206.180 70.000,206.000 70.243,206.000 70.541 C 206.000 70.838,205.460 71.646,204.800 72.337 C 204.140 73.028,203.600 73.799,203.600 74.051 C 203.600 74.304,202.972 75.046,202.205 75.702 C 201.438 76.357,200.926 77.080,201.067 77.308 C 201.208 77.537,201.144 77.613,200.925 77.477 C 200.706 77.342,199.553 78.171,198.363 79.320 C 197.173 80.469,195.711 81.660,195.114 81.965 C 194.516 82.271,194.109 82.653,194.209 82.814 C 194.308 82.975,193.852 83.330,193.195 83.602 C 192.538 83.874,192.000 84.255,192.000 84.449 C 192.000 84.642,191.640 84.800,191.200 84.800 C 190.760 84.800,190.400 84.980,190.400 85.200 C 190.400 85.420,190.040 85.600,189.600 85.600 C 189.160 85.600,188.800 85.780,188.800 86.000 C 188.800 86.220,188.440 86.400,188.000 86.400 C 187.560 86.400,187.200 86.580,187.200 86.800 C 187.200 87.020,186.851 87.200,186.424 87.200 C 185.997 87.200,185.536 87.380,185.400 87.600 C 185.264 87.820,184.613 88.000,183.953 88.000 C 183.255 88.000,182.856 88.167,183.000 88.400 C 183.149 88.642,182.604 88.800,181.624 88.800 C 180.731 88.800,180.000 88.980,180.000 89.200 C 180.000 89.420,179.280 89.600,178.400 89.600 C 177.520 89.600,176.800 89.780,176.800 90.000 C 176.800 90.226,175.667 90.400,174.200 90.400 C 172.733 90.400,171.600 90.574,171.600 90.800 C 171.600 91.051,169.133 91.200,165.000 91.200 C 160.867 91.200,158.400 91.051,158.400 90.800 C 158.400 90.579,157.350 90.400,156.049 90.400 C 154.648 90.400,153.529 90.197,153.280 89.897 C 152.711 89.211,152.622 72.957,153.186 72.609 C 153.414 72.468,153.600 71.384,153.600 70.200 C 153.600 69.016,153.780 67.936,154.000 67.800 C 154.220 67.664,154.400 66.843,154.400 65.976 C 154.400 65.109,154.580 64.400,154.800 64.400 C 155.020 64.400,155.200 63.860,155.200 63.200 C 155.200 62.540,155.380 62.000,155.600 62.000 C 155.820 62.000,156.000 61.460,156.000 60.800 C 156.000 60.140,156.158 59.600,156.350 59.600 C 156.628 59.600,157.111 58.115,157.196 57.001 C 157.204 56.894,157.568 56.169,158.005 55.391 C 158.442 54.612,158.800 53.701,158.800 53.364 C 158.800 53.028,158.942 52.840,159.115 52.948 C 159.288 53.055,159.680 52.570,159.985 51.871 C 160.290 51.172,160.868 50.309,161.270 49.953 C 161.671 49.597,162.000 49.119,162.000 48.890 C 162.000 48.273,168.663 41.600,169.279 41.600 C 169.570 41.600,170.343 41.105,170.996 40.500 C 171.650 39.895,172.301 39.438,172.444 39.484 C 172.588 39.530,173.024 39.215,173.414 38.784 C 173.805 38.353,174.366 38.000,174.662 38.000 C 174.958 38.000,175.200 37.820,175.200 37.600 C 175.200 37.380,175.560 37.200,176.000 37.200 C 176.440 37.200,176.800 37.020,176.800 36.800 C 176.800 36.580,177.160 36.400,177.600 36.400 C 178.040 36.400,178.400 36.220,178.400 36.000 C 178.400 35.780,178.771 35.600,179.224 35.600 C 179.677 35.600,179.936 35.420,179.800 35.200 C 179.660 34.973,179.996 34.800,180.576 34.800 C 181.139 34.800,181.601 34.665,181.603 34.500 C 181.607 34.141,183.544 33.200,184.280 33.200 C 184.566 33.200,184.800 33.009,184.800 32.776 C 184.800 32.543,184.948 32.444,185.129 32.556 C 185.309 32.668,185.960 32.498,186.574 32.180 C 187.189 31.861,188.131 31.600,188.669 31.600 C 189.219 31.600,189.539 31.425,189.400 31.200 C 189.256 30.967,189.663 30.800,190.376 30.800 C 191.049 30.800,191.600 30.620,191.600 30.400 C 191.600 30.180,192.320 30.000,193.200 30.000 C 194.080 30.000,194.800 29.820,194.800 29.600 C 194.800 29.380,195.329 29.200,195.976 29.200 C 196.623 29.200,197.264 29.020,197.400 28.800 C 197.536 28.580,198.432 28.400,199.390 28.400 C 200.349 28.400,201.193 28.223,201.267 28.006 C 201.340 27.790,202.255 27.581,203.300 27.542 C 204.345 27.502,205.200 27.319,205.200 27.135 C 205.200 26.951,206.190 26.800,207.400 26.800 C 208.610 26.800,209.600 26.620,209.600 26.400 C 209.600 26.167,210.933 26.000,212.800 26.000 C 214.667 26.000,216.000 25.833,216.000 25.600 C 216.000 25.380,216.900 25.200,218.000 25.200 L 220.000 25.200 220.000 27.600 " stroke="none" fill="#4ca4fc" fill-rule="evenodd"></path><path id="path2" d="M279.200 198.000 C 277.820 198.169,279.609 198.275,284.000 198.285 C 288.693 198.295,290.407 198.194,289.200 197.980 C 287.098 197.606,282.339 197.615,279.200 198.000 M203.038 344.900 C 203.768 346.177,207.908 352.008,209.370 353.818 C 210.266 354.928,211.320 356.278,211.712 356.818 L 212.423 357.800 211.962 356.833 C 211.708 356.301,210.712 354.899,209.749 353.717 C 208.786 352.534,206.914 349.954,205.589 347.983 C 204.264 346.013,203.083 344.400,202.966 344.400 C 202.849 344.400,202.881 344.625,203.038 344.900 " stroke="none" fill="#9caca4" fill-rule="evenodd"></path><path id="path3" d="M278.200 197.485 C 276.139 197.981,277.102 198.213,279.896 197.893 C 281.603 197.698,284.755 197.643,286.900 197.771 C 289.401 197.920,290.800 197.860,290.800 197.602 C 290.800 197.197,279.822 197.095,278.200 197.485 M202.784 345.275 C 203.233 345.757,203.600 346.387,203.600 346.675 C 203.600 346.964,203.780 347.200,204.000 347.200 C 204.220 347.200,204.400 347.470,204.400 347.800 C 204.400 348.130,204.580 348.400,204.800 348.400 C 205.020 348.400,205.200 348.670,205.200 349.000 C 205.200 349.330,205.341 349.600,205.514 349.600 C 205.686 349.600,206.120 350.095,206.479 350.700 C 206.837 351.305,207.460 352.190,207.865 352.666 C 209.741 354.877,210.208 355.470,211.073 356.746 C 211.583 357.497,212.000 357.922,212.000 357.691 C 212.000 357.460,211.183 356.219,210.185 354.935 C 209.187 353.651,207.080 350.755,205.502 348.500 C 203.925 346.245,202.484 344.400,202.301 344.400 C 202.118 344.400,202.336 344.794,202.784 345.275 " stroke="none" fill="#54a4f4" fill-rule="evenodd"></path><path id="path4" d="M279.680 198.698 C 281.594 198.771,284.834 198.771,286.880 198.698 C 288.926 198.626,287.360 198.566,283.400 198.565 C 279.440 198.565,277.766 198.624,279.680 198.698 M208.227 351.800 C 209.600 353.600,209.868 353.603,208.704 351.805 C 208.207 351.038,207.656 350.408,207.480 350.405 C 207.303 350.402,207.640 351.030,208.227 351.800 M210.759 355.014 C 211.441 355.792,212.000 356.612,212.000 356.838 C 212.000 357.063,212.187 357.131,212.416 356.990 C 212.836 356.731,210.526 353.700,209.859 353.634 C 209.671 353.615,210.076 354.236,210.759 355.014 " stroke="none" fill="#ccb46c" fill-rule="evenodd"></path></g></svg>